<svg xmlns="http://www.w3.org/2000/svg" xmlns:xlink="http://www.w3.org/1999/xlink" viewBox="0 0 768 497">
  <defs>
    <style>
      .cls-1 {
        fill: none;
        stroke: #000;
        stroke-miterlimit: 10;
        opacity: 0;
      }
    </style>
  </defs>
  <title>find1web</title>
  <g id="bg">
    <image width="768" height="497" xlink:href="farm-map-m.png"/>
  </g>
  <g id="map">
    <g id="zone-c2">
      <polygon class="cls-1" points="145.5 410.5 148.5 412.5 148.5 432.5 186.5 452.5 274.5 401.5 274.5 388.5 279.5 385.5 257.5 357.5 233.5 359.5 145.5 410.5"/>
    </g>
    <g id="zone-i1">
      <polygon class="cls-1" points="369.5 71.5 368.5 71.5 367.5 72.5 367.5 73.5 366.5 73.5 365.5 73.5 365.5 74.5 364.5 75.5 364.5 76.5 364.5 77.5 363.5 80.5 362.5 83.5 363.5 84.5 364.5 84.5 364.5 90.5 364.5 97.5 370.5 97.5 370.5 95.5 372.5 95.5 372.5 93.5 370.5 92.5 370.5 86.5 373.5 85.5 373.5 84.5 373.5 83.5 374.5 82.5 375.5 81.5 374.5 81.5 371.5 81.5 370.5 80.5 370.5 75.5 373.5 75.5 373.5 74.5 372.5 73.5 371.5 71.5 369.5 71.5 369.5 71.5"/>
    </g>
    <g id="zone-c1">
      <path class="cls-1" d="M162.5,169.5c0,24-2,21,0,24s59,33,59,33l54-28v-29h5l-77-47h-19l-14,17-13,26Z"/>
    </g>
  </g>
</svg>
