<svg id="Layer_1" data-name="Layer 1" 
  xmlns:xlink="http://www.w3.org/1999/xlink" 
  xmlns="http://www.w3.org/2000/svg" viewBox="0 0 1024 768">
  <defs>
    <style>
            .cls-1, .cls-9 {
        fill: none;
      }

      .cls-2 {
        fill: #fff;
      }

      .cls-3 {
        fill: #0e0e0e;
      }

      .cls-4 {
        fill: #ff3215;
      }

      .cls-5 {
        fill: #155267;
      }

      .cls-6 {
        fill: #f8c522;
      }

      .cls-7 {
        fill: #80752f;
      }

      .cls-8 {
        fill: #89d2e4;
      }

      .cls-9 {
        stroke: #000;
      }
    </style>
  </defs>
  <title>shape1</title>
  <path id="motionPath" class="cls-1" d="M1024.223,328.126c-402,56.448-891.108,33.257-1143.173,3-464.836-1.624-840.489-40.627-1062.1-99.01" transform="translate(1181.046 0.5)"/>
  <g id="circle">
    <g id="Layer73_0_FILL" data-name="Layer73 0 FILL">
      <path class="cls-2" d="M959.774,381.043a1.052,1.052,0,0,0-.2.65q.2.45,1.15-.5a3.487,3.487,0,0,1,1.2-.85,7.309,7.309,0,0,1,1.75-.15l1.1.05,1.45,1.3q.2.1.2.25t.25.25a.343.343,0,0,0,.4-.05.394.394,0,0,0,.217-.513.405.405,0,0,0-.017-.037,3.039,3.039,0,0,0-.85-1.05,4.694,4.694,0,0,0-1.15-.85,4.208,4.208,0,0,0-1.4-.25,8.617,8.617,0,0,0-1.7.05,3.84,3.84,0,0,0-1.8.9A3.588,3.588,0,0,0,959.774,381.043Z" transform="translate(0.277 0.5)"/>
    </g>
    <g id="Layer72_0_FILL" data-name="Layer72 0 FILL">
      <path class="cls-2" d="M956.124,379.593a1.264,1.264,0,0,0-.3-.15,8.82,8.82,0,0,0-1.2-.35,9.552,9.552,0,0,0-1.2.1,6.689,6.689,0,0,0-1.3.45,2.726,2.726,0,0,0-1,.55,3.677,3.677,0,0,0-.7.9q-.2.45,0,.6a.309.309,0,0,0,.35.1.469.469,0,0,0,.3-.25,2.286,2.286,0,0,1,.65-.6,4.953,4.953,0,0,1,1.1-.65,3.188,3.188,0,0,1,1.4-.25,4.527,4.527,0,0,1,.8.05,2.771,2.771,0,0,1,.65.25,6.111,6.111,0,0,1,.8.45,9.177,9.177,0,0,1,.75.7q.85.75,1,.45.1-.1-.05-.45a2.4,2.4,0,0,0-.4-.7,3.082,3.082,0,0,0-.75-.7q-.55-.35-.7-.25-.1.05-.1-.1Q956.224,379.693,956.124,379.593Z" transform="translate(0.277 0.5)"/>
    </g>
    <g id="Layer71_0_FILL" data-name="Layer71 0 FILL">
      <path class="cls-2" d="M945.224,379.393a6.775,6.775,0,0,1,1.05.05,3.646,3.646,0,0,1,.7.25,10.413,10.413,0,0,1,1.15.9q.8.7.85.95.05.1.35.05.2-.05.2-.15.05-.05,0-.25a3.422,3.422,0,0,0-.25-.7,8.511,8.511,0,0,0-.6-.65,5.126,5.126,0,0,0-1.45-1,4.857,4.857,0,0,0-1.7-.3,6.173,6.173,0,0,0-1.25,0,1.379,1.379,0,0,1-.4.15,2.082,2.082,0,0,0-.9.4,5.385,5.385,0,0,0-1.15,1.05q-.6.7-.55.9.05.25.25.25a.476.476,0,0,0,.45-.15l.55-.6a4.377,4.377,0,0,1,1.15-.95A4.454,4.454,0,0,1,945.224,379.393Z" transform="translate(0.277 0.5)"/>
    </g>
    <g id="Layer70_0_FILL" data-name="Layer70 0 FILL">
      <path class="cls-2" d="M895.674,350.343a2.848,2.848,0,0,0-.75.05q-.25.2.05.5a1.491,1.491,0,0,0,.8.35,3.443,3.443,0,0,1,2.3,1.45,2.369,2.369,0,0,1,.1,2.4,3.091,3.091,0,0,0-.25.8q-.05.35.1.4l.05.05a.144.144,0,0,0,.05-.1q0-.1.15,0a.163.163,0,0,0,.2.05l.35-.35a4.109,4.109,0,0,0,.5-1.15,2.838,2.838,0,0,0,0-1.3,3.309,3.309,0,0,0-.9-1.8,5.581,5.581,0,0,0-2-1.25A4.4,4.4,0,0,0,895.674,350.343Z" transform="translate(0.277 0.5)"/>
    </g>
    <g id="Layer69_0_FILL" data-name="Layer69 0 FILL">
      <path class="cls-2" d="M891.974,342.343a.858.858,0,0,0-.35.05q-.1,0-.1.15a.594.594,0,0,0,.1.45.576.576,0,0,0,.4.2,1.957,1.957,0,0,1,.65.15q.45.15.45.25t.2.15a2.047,2.047,0,0,1,.55.55,4.028,4.028,0,0,1,.5,1.1,2.755,2.755,0,0,1,.2.75,2.425,2.425,0,0,1-.05.8,4.59,4.59,0,0,1-.35,1.15q-.2.6-.35.6-.1,0-.1.2a.742.742,0,0,0,.2.35.416.416,0,0,0,.4.15.548.548,0,0,0,.35-.2,3.676,3.676,0,0,0,.75-1.75,4.873,4.873,0,0,0-.1-2.2,4.659,4.659,0,0,0-.6-1.25q-.45-.7-.65-.7a.088.088,0,0,1-.1-.1q0-.1-.4-.3-.35-.2-.35-.25,0-.1-.45-.2A3.736,3.736,0,0,0,891.974,342.343Z" transform="translate(0.277 0.5)"/>
    </g>
    <g id="Layer68_0_FILL" data-name="Layer68 0 FILL">
      <path class="cls-2" d="M889.174,335.393q-.15.45.6.7a2.45,2.45,0,0,1,.85.6,3.9,3.9,0,0,1,.7.85,2.2,2.2,0,0,1,.15,1,4.867,4.867,0,0,1-.05,1.25,2.4,2.4,0,0,1-.3.8,1.1,1.1,0,0,1-.4.55q-.1.05-.1.25a.48.48,0,0,0,.15.35.344.344,0,0,0,.45.15,1.18,1.18,0,0,0,.5-.5,5.144,5.144,0,0,0,.75-2.35,3.5,3.5,0,0,0-.5-2.15,5.728,5.728,0,0,0-1.1-1.1,2.942,2.942,0,0,0-1.15-.6.764.764,0,0,0-.4,0Q889.274,335.193,889.174,335.393Z" transform="translate(0.277 0.5)"/>
    </g>
    <g id="Layer67_0_FILL" data-name="Layer67 0 FILL">
      <path class="cls-3" d="M973.124,325.893q-.15.25-.05.4a.637.637,0,0,0,.3.3,1.581,1.581,0,0,0,.35.15q.1,0,.2-.15a.461.461,0,0,0,.1-.4.468.468,0,0,0-.25-.35.48.48,0,0,0-.35-.15A.485.485,0,0,0,973.124,325.893Z" transform="translate(0.277 0.5)"/>
    </g>
    <g id="Layer66_0_FILL" data-name="Layer66 0 FILL">
      <path class="cls-3" d="M971.174,325.093a.327.327,0,0,0-.15.15.508.508,0,0,0-.1.4q0,.15.1.15a.337.337,0,0,1,.3.15.45.45,0,0,0,.4.15.544.544,0,0,0,.2-.1.2.2,0,0,0,.1-.2q.05-.55-.6-.65A1.5,1.5,0,0,0,971.174,325.093Z" transform="translate(0.277 0.5)"/>
    </g>
    <g id="Layer65_0_FILL" data-name="Layer65 0 FILL">
      <path class="cls-3" d="M967.674,323.993a.277.277,0,0,0-.05.35,1.628,1.628,0,0,0,.6.3q.5.2.65.1.15-.05.05-.4-.1-.3-.2-.35a2.032,2.032,0,0,0-.5-.1Q967.824,323.793,967.674,323.993Z" transform="translate(0.277 0.5)"/>
    </g>
    <g id="Layer64_0_FILL" data-name="Layer64 0 FILL">
      <path class="cls-3" d="M965.124,322.643a.416.416,0,0,0-.15.4,1.908,1.908,0,0,0,.45.4q.3.2.4.25.05,0,.2-.15.35-.45-.3-.85a1.4,1.4,0,0,0-.35-.2A.409.409,0,0,0,965.124,322.643Z" transform="translate(0.277 0.5)"/>
    </g>
    <g id="Layer63_0_FILL" data-name="Layer63 0 FILL">
      <path class="cls-3" d="M962.224,321.443q-.25.15-.15.35.05.2.45.35.95.45.85-.15,0-.3-.45-.5A.761.761,0,0,0,962.224,321.443Z" transform="translate(0.277 0.5)"/>
    </g>
    <g id="Layer62_0_FILL" data-name="Layer62 0 FILL">
      <path class="cls-3" d="M960.224,320.593q-.2-.15-.3-.1a.294.294,0,0,1-.25-.15.294.294,0,0,0-.25-.15q-.15,0-.25.2a.594.594,0,0,0-.1.45,1.034,1.034,0,0,0,.45.3,1.254,1.254,0,0,0,.7.15q.3-.05.2-.3A.76.76,0,0,0,960.224,320.593Z" transform="translate(0.277 0.5)"/>
    </g>
    <g id="Layer61_0_FILL" data-name="Layer61 0 FILL">
      <path class="cls-3" d="M956.024,319.293a.451.451,0,0,0,0,.3,1.951,1.951,0,0,0,.35.2,1.611,1.611,0,0,0,.7.2q.3.05.3-.1-.05-.65-.4-.7a2.242,2.242,0,0,1-.6-.1q-.2-.05-.25,0Q956.024,319.093,956.024,319.293Z" transform="translate(0.277 0.5)"/>
    </g>
    <g id="Layer60_0_FILL" data-name="Layer60 0 FILL">
      <path class="cls-3" d="M953.524,317.743a.876.876,0,0,0-.25-.1q-.05,0-.15.15a.888.888,0,0,0-.1.4q0,.25.1.25a2.067,2.067,0,0,1,.65.25,3,3,0,0,1,.5.25q.1,0,.05-.1t.1-.2q.15-.05.05-.4a.544.544,0,0,0-.1-.2.339.339,0,0,0-.25-.1A3.138,3.138,0,0,1,953.524,317.743Z" transform="translate(0.277 0.5)"/>
    </g>
    <g id="Layer59_0_FILL" data-name="Layer59 0 FILL">
      <path class="cls-3" d="M950.824,316.543a.444.444,0,0,0-.2-.05.785.785,0,0,0-.2.15.41.41,0,0,0-.15.25q-.05.05.05.2a1.034,1.034,0,0,0,.45.3,2.86,2.86,0,0,0,.65.2.236.236,0,0,0,.25-.2.551.551,0,0,0-.05-.5.354.354,0,0,0-.35-.25A.992.992,0,0,1,950.824,316.543Z" transform="translate(0.277 0.5)"/>
    </g>
    <g id="Layer58_0_FILL" data-name="Layer58 0 FILL">
      <path class="cls-2" d="M908.774,298.393q-.25.1-.7.3-.3.1-.35.2a.407.407,0,0,0-.1.3q0,.3.2.35a1.843,1.843,0,0,0,.7-.05,2.232,2.232,0,0,0,.8-.3q.45-.25.45-.3a3.308,3.308,0,0,0,.85-.75,4.657,4.657,0,0,0,.8-.95,7.252,7.252,0,0,0,.5-1.2,8.62,8.62,0,0,0,.25-1.2,7.311,7.311,0,0,0-.25-2.75,5.7,5.7,0,0,0-.45-.8q-.4-.55-.55-.75l-.6-.45a2.555,2.555,0,0,0-.65-.35q-.2-.05-.35.2a.5.5,0,0,0-.1.5,3,3,0,0,0,.6.4q.6.3.6.4a3.253,3.253,0,0,0,.4.75l.4.6v2.85l-.4.8a4.849,4.849,0,0,1-1.1,1.5Q909.024,298.393,908.774,298.393Z" transform="translate(0.277 0.5)"/>
    </g>
    <g id="Layer57_0_FILL" data-name="Layer57 0 FILL">
      <path class="cls-2" d="M912.774,282.293a1.507,1.507,0,0,0-.45-.65,4.021,4.021,0,0,0-.8-.7q-1-.65-1.3-.15a.42.42,0,0,0,0,.4q.05.15.5.35a3.291,3.291,0,0,1,1.35,1.35,2.875,2.875,0,0,1,.4,1.8,4.394,4.394,0,0,1-.6,1.8q-.6,1.05-1,1.05a.088.088,0,0,0-.1.1q0,.1-.55.3a1.328,1.328,0,0,0-.7.45.768.768,0,0,0-.1.3q0,.05.15.15a.538.538,0,0,0,.3.1,2.935,2.935,0,0,0,.7-.2,3.712,3.712,0,0,0,.9-.45,2.938,2.938,0,0,0,.8-.7,6.278,6.278,0,0,0,.65-1.1,7.4,7.4,0,0,0,.45-1.25,2.66,2.66,0,0,0,0-1.45,2.213,2.213,0,0,0-.45-1.2A.607.607,0,0,1,912.774,282.293Z" transform="translate(0.277 0.5)"/>
    </g>
    <g id="Layer56_0_FILL" data-name="Layer56 0 FILL">
      <path class="cls-3" d="M995.974,277.293a2.755,2.755,0,0,0-.55.1l-.6.25q-.15.05-.35.45-.25.4-.2.5.1.15-1.95,2.15l-1.2,1.2q-.3.35-1.15,1.2l-1,.95-.45-2.15a7.689,7.689,0,0,0-.45-1.55,1.962,1.962,0,0,1-.2-.6q0-.2-.35-.55a1,1,0,0,0-.5-.3q-.2-.1-.3.05a.144.144,0,0,0-.05.1h.05q.15,0,.15.3a3.5,3.5,0,0,0,.25,1q.25.75.35,1.15a18.772,18.772,0,0,0,.95,3.6.3.3,0,0,0,.45.15,4,4,0,0,0,1.05-.9l2.6-2.6q1.6-1.6,2.5-2.65a5.7,5.7,0,0,1,1.15-1.05.629.629,0,0,0,.25-.35.432.432,0,0,0-.2-.35A.486.486,0,0,0,995.974,277.293Z" transform="translate(0.277 0.5)"/>
    </g>
    <g id="Layer55_0_FILL" data-name="Layer55 0 FILL">
      <path class="cls-3" d="M924.024,271.143l-.3.8q-.05.05.15.05.3.05,1.55.25a8.131,8.131,0,0,0,1.15.15,2.809,2.809,0,0,1,.65.1,8.256,8.256,0,0,0,1.35.15,5.292,5.292,0,0,0,1.4-.05q.35-.05.35-.3a.451.451,0,0,0-.3-.4,6.029,6.029,0,0,0-1.15-.15,11.412,11.412,0,0,1-1.6-.1q-.85-.15-2-.3Z" transform="translate(0.277 0.5)"/>
    </g>
    <g id="Layer54_0_FILL" data-name="Layer54 0 FILL">
      <path class="cls-3" d="M970.924,271.143a10.327,10.327,0,0,0,.15,1.25q.2,1.45.6,3.15a19.071,19.071,0,0,1,.45,2.05q.3,1.4.4,1.95l.1.7q.05.45-.05.45t.1.4a1.675,1.675,0,0,0,.35.6.277.277,0,0,0,.35.05.468.468,0,0,0,.35-.25,19.521,19.521,0,0,1,1.3-1.55q1.2-1.25,2.35-2.4a13.953,13.953,0,0,0,1.55-1.6q0-.1-.35-.3-.4-.2-.4-.15l-.3.45q-.3.35-.35.35-.1,0-.65.55l-1.05,1.05a7.786,7.786,0,0,0-.85.9q-1.3,1.55-1.4,1.35-.05-.15-.2-.95-.65-3.25-.95-4.35l-.5-2.15a6.132,6.132,0,0,1-.2-1.25.722.722,0,0,0-.25-.6q-.2-.25-.25-.25a.41.41,0,0,0-.25.15A1.04,1.04,0,0,0,970.924,271.143Z" transform="translate(0.277 0.5)"/>
    </g>
    <g id="Layer53_0_FILL" data-name="Layer53 0 FILL">
      <path class="cls-2" d="M911.324,271.343q.1.05.9.55.45.35.65.5a1.668,1.668,0,0,1,.35.65,3.924,3.924,0,0,1,.35,2.3,4.086,4.086,0,0,1-.85,2.2q-1,1.35-1.6,1.35a.45.45,0,0,0-.4.15.415.415,0,0,0-.1.4.2.2,0,0,0,.1.2,1.04,1.04,0,0,0,.4.05,2.72,2.72,0,0,0,.75-.1,3.23,3.23,0,0,0,1-.75q.75-.65.75-.8a.294.294,0,0,1,.15-.25,3.455,3.455,0,0,0,.45-.9,6,6,0,0,0,.2-.85,10.361,10.361,0,0,0,.05-1.25,9.628,9.628,0,0,0-.05-1.25,3.256,3.256,0,0,0-.25-.75,4.689,4.689,0,0,0-1.35-1.6q-.95-.75-1.3-.5a.629.629,0,0,0-.25.35A.3.3,0,0,0,911.324,271.343Z" transform="translate(0.277 0.5)"/>
    </g>
    <g id="Layer52_0_FILL" data-name="Layer52 0 FILL">
      <path class="cls-3" d="M965.874,265.443q-.4.2-.35.3a1.889,1.889,0,0,1-.2.4q-.2.35-.4.65l-1.7,2.1q-.25.3-1,1.4a28.124,28.124,0,0,1-3.35,4.35q-.55.65-1.75,2.05-.1.15-.15.1,0-.05-.1-.5l-.25-1.45q-.15-.65-.3-1.35-.05-.65-.25-2.1-.2-1.35-.35-2.05-.25-1.35-.45-3.4-.15-1.3-.7-4.1-.3-1.8-.4-2.55-.1-.85-.25-1.75a6.691,6.691,0,0,0-.2-.9.966.966,0,0,0-.5-.15.379.379,0,0,0-.35.05q-.15.05-.5.6a6.84,6.84,0,0,0-.45.8,1.342,1.342,0,0,1-.25.35,5.8,5.8,0,0,0-.7,1q-.45.65-.8,1.1l-2.9,4a10.553,10.553,0,0,1-.95,1.4,15.119,15.119,0,0,0-.9,1.25,34.617,34.617,0,0,1-2,2.9q-.2.25-.15.35t-.1.1a3.915,3.915,0,0,0-.75,1,11.788,11.788,0,0,1-.95,1.35l-.45.5a.432.432,0,0,1-.3.15q-.2,0-.35-.35-.1-.4-.35-1.65-.9-4.2-1.2-5.5l-2.05-8.7a6.853,6.853,0,0,1-.25-1.4,3.461,3.461,0,0,0-.1-.7l-.3-1.3q-.25-1-.5-1.7a2.3,2.3,0,0,0-.3-.6.337.337,0,0,0-.3-.15,1,1,0,0,0-.45,0q-.15.05-.1.35,0,.35.1.4.2.1.6,1.4.35,1.35.55,2.6a6.512,6.512,0,0,0,.2,1.05q.45,1.9.6,2.55.05.5.2.55.15.1.05.15t.1.9l.25,1.05a7.08,7.08,0,0,0,.2.85,8.752,8.752,0,0,1,.2,1,12.172,12.172,0,0,0,.4,1.9q.3,1.1.5,1.95l.45,2.55a3.713,3.713,0,0,0,.15.65,5.035,5.035,0,0,1,.25,1,2.891,2.891,0,0,1,.15.9q0,.1.05.5a.765.765,0,0,0,.15.4q.05.1.3.1a4.618,4.618,0,0,0,1,.1,2.013,2.013,0,0,0,.55-.05.667.667,0,0,0,.3-.25.69.69,0,0,0,.25-.45,2.68,2.68,0,0,1,.5-.7,9.569,9.569,0,0,0,.75-1.15q.2-.35.65-1,.5-.65.6-.8l.2-.3a2.475,2.475,0,0,1,.35-.5l3.8-5.5q.85-1.2,1.6-2.2.95-1.3,1.2-1.7,1.3-2.05,1.4-1.85a7.033,7.033,0,0,1,.25,1.4q.45,3.4.7,4.45.2.95.25,1.15l.3,3.05q.15,1.2.3,2,.35,1.8.5,3.05.1.9.35,2.2l.4,2.5.6.15a3.919,3.919,0,0,0,.55.1.549.549,0,0,0,.35-.2,2.11,2.11,0,0,0,.4-.55,11.211,11.211,0,0,1,1.45-1.85,35.084,35.084,0,0,0,3.2-4.2q.4-.65,1.2-1.7l1.45-1.9q.5-.65.95-1.2a1.052,1.052,0,0,0,.3-.45.387.387,0,0,0-.1-.35.288.288,0,0,0-.2-.1A1.636,1.636,0,0,0,965.874,265.443Z" transform="translate(0.277 0.5)"/>
    </g>
    <g id="Layer51_0_FILL" data-name="Layer51 0 FILL">
      <path class="cls-2" d="M954.324,230.593a3,3,0,0,0-.4-1.6,3.769,3.769,0,0,0-1.3-1.4,2.351,2.351,0,0,0-.5-.3,2.98,2.98,0,0,0-.65-.05,2.17,2.17,0,0,0-1.05.2,1.573,1.573,0,0,1-.55.2q-.2,0-.2.1,0,.15-.1.05-.15-.1-.7.7-.55.85-.5,1.1.1.2-.05.1t-.1.6a3.679,3.679,0,0,0,.3,1.1,3.134,3.134,0,0,0,.6.8q.4.45.55.45a.088.088,0,0,1,.1.1q0,.1.55.3a2.851,2.851,0,0,0,1.9.15,2.55,2.55,0,0,0,1.5-1.05A3.774,3.774,0,0,0,954.324,230.593Z" transform="translate(0.277 0.5)"/>
    </g>
    <g id="Layer50_0_FILL" data-name="Layer50 0 FILL">
      <path class="cls-2" d="M924.724,226.843a.515.515,0,0,0-.2-.1.163.163,0,0,0-.2.05q-.25.15-.6,1.9-.2,1.1-.85,3.7a8.231,8.231,0,0,0-.25,1.25q-.15.55-.05.7.05.15.45.15a.354.354,0,0,0,.35-.25,2.272,2.272,0,0,0,.25-.9,5.941,5.941,0,0,1,.25-1.2q.35-1.45.95-4.55a5.319,5.319,0,0,0,.05-.55A.785.785,0,0,0,924.724,226.843Z" transform="translate(0.277 0.5)"/>
    </g>
    <g id="Layer49_0_FILL" data-name="Layer49 0 FILL">
      <path class="cls-2" d="M918.824,225.743q-.35.3-.35.4a2,2,0,0,1-.45.6,10.446,10.446,0,0,0-1,1.05,7.381,7.381,0,0,0-.8,1q-.25.35-.3.4l-.4.5a2.949,2.949,0,0,1-.5.55.429.429,0,0,0-.15.45.514.514,0,0,0,.3.45.249.249,0,0,0,.25.05,1.6,1.6,0,0,0,.35-.35,4.381,4.381,0,0,0,.7-.85q.8-1.1,1.75-2.25t1.15-1.15q.15,0,.4-.4.3-.6-.1-.8Q919.324,225.243,918.824,225.743Z" transform="translate(0.277 0.5)"/>
    </g>
    <g id="Layer48_0_FILL" data-name="Layer48 0 FILL">
      <path class="cls-2" d="M954.224,223.943q-.2,0-.25.1a.765.765,0,0,0,.05.45.482.482,0,0,0,.25.2,3.54,3.54,0,0,0,.6.1q.75.05.9.05a1.465,1.465,0,0,1,.75.05,1.74,1.74,0,0,1,.2.7q.25,1.3.3,1.6a1.144,1.144,0,0,0,.2.45.421.421,0,0,0,.35.05.321.321,0,0,0,.25-.25,3.663,3.663,0,0,0-.1-1.05l-.25-1.5a.991.991,0,0,0-.25-.7.649.649,0,0,0-.55-.2l-1.5-.05A4.27,4.27,0,0,0,954.224,223.943Z" transform="translate(0.277 0.5)"/>
    </g>
    <g id="Layer47_0_FILL" data-name="Layer47 0 FILL">
      <path class="cls-2" d="M915.174,222.293a6.962,6.962,0,0,0-1.8,1.2.549.549,0,0,1-.35.2,10.348,10.348,0,0,0-1.4.85,6.373,6.373,0,0,1-1,.55q-.3.15-.55.3-.2.15-.2.2a.855.855,0,0,0,.15.4l.2.2.65-.3a2.929,2.929,0,0,1,.7-.35q.05,0,1.6-1,1.65-1.1,2.5-1.6.75-.4.75-.5t-.25-.35l-.25-.25Z" transform="translate(0.277 0.5)"/>
    </g>
    <g id="Layer46_0_FILL" data-name="Layer46 0 FILL">
      <path class="cls-2" d="M919.874,196.393q1.2.25,1.4-.05.15-.2-.05-.5-.15-.3-.25-.25a2.444,2.444,0,0,1-.85-.1,2.955,2.955,0,0,1-.9-.2l-.9-.35a9.027,9.027,0,0,1-1.25-.65,5.483,5.483,0,0,1-1-.85,4.49,4.49,0,0,1-.7-1.1,12.1,12.1,0,0,1-.5-1.3,5.558,5.558,0,0,1,.05-1.95,3.221,3.221,0,0,1,.6-1.6q.4-.45.3-.65t-.6,0a1.911,1.911,0,0,0-.65.7,4.758,4.758,0,0,0-.55,3.5,3.584,3.584,0,0,0,.3,1.2q.15.3.35.75a2.963,2.963,0,0,0,.55.95,6.2,6.2,0,0,0,1,.85,8.247,8.247,0,0,0,1.45.9A7.107,7.107,0,0,0,919.874,196.393Z" transform="translate(0.277 0.5)"/>
    </g>
    <g id="Layer45_0_FILL" data-name="Layer45 0 FILL">
      <path class="cls-4" d="M966.374,370.293a16.375,16.375,0,0,0,3.1.4,22.687,22.687,0,0,0,.25-3.15q.1-1.85.1-2.45,0-.55-.1-.6a18.753,18.753,0,0,0-2-.65l-12.9-3.8q-7.7-2.35-7.9-2.35t-.3.3q-.1.3-.35,1.25a11.728,11.728,0,0,1-.65,1.85,6.3,6.3,0,0,0-.35,1.1,27.127,27.127,0,0,1-.85,3.1q-.25.85-.15,1t.95.3l5.4,1q2.3.4,4.15.8,1.35.25,2.05.35.85.1,2.05.3t1.75.35a16.8,16.8,0,0,0,1.7.3Q963.274,369.793,966.374,370.293Z" transform="translate(0.277 0.5)"/>
    </g>
    <g id="Layer44_0_FILL" data-name="Layer44 0 FILL">
      <path class="cls-4" d="M901.424,331.493l1.1,3.2q.4,1,.65,1.85a13.08,13.08,0,0,0,.5,1.5q.2.5.65,1.75l.4,1.3q.25.5,1.3,3.45l2.2,5.65a18.43,18.43,0,0,0,.8,2.05q.15.3.3.25.3-.15,2.3-1.4t2-1.3q0-.1-5.6-21-.05-.15-.3-.15a1.291,1.291,0,0,0-.6.05q-.25.05-4.05,1.15a11.948,11.948,0,0,0-1.85.6Q901.124,330.543,901.424,331.493Z" transform="translate(0.277 0.5)"/>
    </g>
    <g id="Layer43_0_FILL" data-name="Layer43 0 FILL">
      <path class="cls-5" d="M982.474,282.893q-1.45-.3-2.1-.45-2.6-.5-7.1-1.45-4.4-.95-5.1-1.15a14.724,14.724,0,0,0-2.05-.4l-1.7-.3a.379.379,0,0,0-.35.05q-.1.15.15.35a3.2,3.2,0,0,0,.85.35,6.446,6.446,0,0,1,1.45.7,10.977,10.977,0,0,1,1.75,1.45,8.31,8.31,0,0,1,1.35,1.5l.35.55a7.76,7.76,0,0,1,.8,2.5,9.459,9.459,0,0,1,.3,2.8,4.354,4.354,0,0,1-.3,1.1,1.241,1.241,0,0,0-.2.5,5.32,5.32,0,0,1-.45,1.1q-.5.95-.85,1.55a5.353,5.353,0,0,1-.85,1.05,7.792,7.792,0,0,0-.9.8,12.753,12.753,0,0,1-2.45,1.7,7.887,7.887,0,0,1-1.45.55,5.821,5.821,0,0,1-1.4.3.818.818,0,0,0-.45.1,4.168,4.168,0,0,1-1.45.3q-1.05.15-3.5.3l-3.35.25q-1.8.1-2.9.1-1-.05-2.8.05l-3.95.1q-2.85.05-6.05.15-3.15.1-4,.2a16.413,16.413,0,0,1-1.7.1q-.65,0-1.95.1l-1.3.15-.9.85q-1.15,1.05-2.5,2.45-1.6,1.6-2.35,2.25-1.45,1.25-8.8,8.35l-2.2,2.1q-.6.5-3,2.9a27.585,27.585,0,0,1-2.65,2.45.321.321,0,0,0-.25.25q-.15.45.9.8l1.3.5a9.633,9.633,0,0,0,1.45.6q.8.35,1.35.6a37.539,37.539,0,0,0,3.9,1.8q2.05.8,3.75,1.6.85.4,1.6.7.65.25,1.3.55a4.408,4.408,0,0,0,1,.45,13.789,13.789,0,0,1,1.45.6q1.15.55,1.3.6a4.935,4.935,0,0,1,1.1.45,10.392,10.392,0,0,0,1.1.5,10.667,10.667,0,0,1,1.95.85l3.25,1.6a18.162,18.162,0,0,1,1.7.9q.05.1.25.1a9.578,9.578,0,0,1,1.2.45,8.852,8.852,0,0,1,1.25.6q.1.05.5.2a7.963,7.963,0,0,1,1.25.55,10.467,10.467,0,0,0,1.35.55,25.229,25.229,0,0,1,2.9,1.35l4.55,2.2a19.492,19.492,0,0,0,2.25,1.05,11.282,11.282,0,0,1,1.65.7q.8.35,1.2.5l2.35,1a2.211,2.211,0,0,1,.4.15,2.574,2.574,0,0,0,.5.2q.15.05,1.15.45a10.142,10.142,0,0,1,1.45.6q1,.45,3.1,1.3l2.2.95q.1,0,3.35,1.55l3.75,1.6q.85.35.9.35a8.269,8.269,0,0,1,.85.4l.85.35q.05,0,2.3,1.05a3.165,3.165,0,0,0,.7.3.409.409,0,0,1,.25.15,2.951,2.951,0,0,0,.7.25,15.521,15.521,0,0,1,3,1.2,10.652,10.652,0,0,0,1.6.7,20.22,20.22,0,0,1,2.45,1.1,15.034,15.034,0,0,0,1.95.8q.6.2.8-.1a37.5,37.5,0,0,0,.1-4.35q-.05-4.25-.2-6.6-.1-1.8-.05-4.8,0-6.55-.15-13.9-.15-9-.25-21.05-.05-5.55-.1-7.25a5.378,5.378,0,0,1,0-1.6,40.838,40.838,0,0,0,0-4.6q-.05-4.5.05-5.4.1-1.15.1-2.4,0-1.3-.15-1.4a15.673,15.673,0,0,0-2.45-.6,18.509,18.509,0,0,1-1.95-.4m-21.2,34.25a2.82,2.82,0,0,0,.8.35q.05,0,.95.4a10.7,10.7,0,0,0,1.1.45,4.277,4.277,0,0,1,.8.3q.45.2,1.15.45.9.35,1.15.45a1.254,1.254,0,0,1,.5.3,1.142,1.142,0,0,0,.65.25,12.822,12.822,0,0,1,2.5.9,10.339,10.339,0,0,0,1.1.45,8.956,8.956,0,0,1,1.15.4,1.573,1.573,0,0,0,.55.2.972.972,0,0,1,.5.2,5.919,5.919,0,0,0,1,.4,4.956,4.956,0,0,0,1,.25q.45,0,.05.65a3.92,3.92,0,0,0-.4.9,8.936,8.936,0,0,1-.7,1.65,4.987,4.987,0,0,1-.85,1.35,2.4,2.4,0,0,0-.4.7,5.252,5.252,0,0,1-.5.8,2.174,2.174,0,0,0-.3.45,7.752,7.752,0,0,1-1.25,1.7,12.853,12.853,0,0,1-1.75,1.8q-.5.35-1,.65a1.947,1.947,0,0,1-.7.25.69.69,0,0,0-.45.25,10.153,10.153,0,0,1-1.95.9l-1.7.65-1.4.05a11.855,11.855,0,0,1-2.3-.1,21.419,21.419,0,0,1-4.25-1.15,16.275,16.275,0,0,1-3.1-1.95,12.825,12.825,0,0,1-2.35-2.25q-.35-.4-.8-.85a11.788,11.788,0,0,1-.95-1.35q-.55-.9-.9-1.6-.25-.7-.55-1.75a17.614,17.614,0,0,1-.35-2.05,9.561,9.561,0,0,1-.1-1.9,13.61,13.61,0,0,1,.25-1.8l.45-1.9a1.563,1.563,0,0,1,.25-.75.611.611,0,0,0,.15-.45,5.257,5.257,0,0,1,.75-1.75,5.1,5.1,0,0,0,.4-.75q.1-.2.25-.2a5.5,5.5,0,0,1,1,.3,11.585,11.585,0,0,0,1.15.35,4.648,4.648,0,0,1,.9.3q.2.1,1.45.55a6.221,6.221,0,0,1,1.4.6.963.963,0,0,0,.45.2,1.152,1.152,0,0,1,.45.15,6.727,6.727,0,0,0,.95.35,2.063,2.063,0,0,1,.85.3,2.124,2.124,0,0,0,.65.2,8.526,8.526,0,0,1,2.3.75Z" transform="translate(0.277 0.5)"/>
    </g>
    <g id="Layer42_0_FILL" data-name="Layer42 0 FILL">
      <path class="cls-2" d="M943.074,239.393q-1.1-2.75-1.2-2.85a.337.337,0,0,0-.3-.15,43.763,43.763,0,0,0-3.95,1.9,20.844,20.844,0,0,0-3.85,2.05q0,.15.7.35.75.15,4.7.9,3.45.65,4.25.75.75.1.75-.05Q944.174,242.193,943.074,239.393Z" transform="translate(0.277 0.5)"/>
    </g>
    <g id="Layer41_0_FILL" data-name="Layer41 0 FILL">
      <path class="cls-2" d="M903.124,240.043q-1-1.1-2.2-2.2-2.35-2.15-3.4-3a16.023,16.023,0,0,0-2.2-1.5l-2.35-1.35q-.9-.65-2.35-1.5a12.968,12.968,0,0,0-1.55-.85l-.5-.3a20.549,20.549,0,0,0-3-1.5q-1-.45-1.5-.65l-1.35-.45a3.789,3.789,0,0,1-.7-.25.538.538,0,0,0-.3-.1.734.734,0,0,1-.4-.2,7.218,7.218,0,0,0-1.2-.45,9.441,9.441,0,0,1-1.7-.65,8.723,8.723,0,0,0-1.6-.5q-.85-.2-1.55-.4a26.979,26.979,0,0,0-3.3-.65q-2.3-.3-4.2-.45-.9-.1-3.7-.1t-3.6.05a60.311,60.311,0,0,0-7.15.9,45.868,45.868,0,0,0-6.35,1.65,35.864,35.864,0,0,0-3.95,1.4q-1.75.75-3.85,1.75a55.532,55.532,0,0,0-23.35,22.2q-.95,1.7-1.75,3.45a24.789,24.789,0,0,0-1.2,2.8q-.2.6-.65,1.65a5.234,5.234,0,0,0-.4,1.15q-.1.45-.5,1.7-.45,1.55-.65,2.45l-.4,1.6a10.9,10.9,0,0,0-.4,1.85q-.2,1.25-.3,2.15l-.2,1.65a31.141,31.141,0,0,0-.35,3.3q-.05,1.3.05,4.1.1,4.5.25,5.85.2,1.35.95,4.65l.45,2.15q.15.65.5,1.7.4,1.3,1.25,3.65,1.25,3.5,1.35,3.8.05.2.7,1.6l1.2,2.5q.65,1.3,1.3,2.35a24.147,24.147,0,0,0,1.6,2.25,4.776,4.776,0,0,1,.85,1.15q0,.25,1.1,1.45.45.5.6.7.2.25,1.6,1.9a49.923,49.923,0,0,0,4.75,4.8,13.739,13.739,0,0,1,1.3,1.2,20.233,20.233,0,0,0,2,1.55,18.4,18.4,0,0,0,1.9,1.35,8.943,8.943,0,0,1,1.3.8l3.7,2.1q1.05.6,2.45,1.25a8.4,8.4,0,0,0,1.6.65,5.135,5.135,0,0,1,1.2.45,34.986,34.986,0,0,0,4.2,1.45l1.65.45a13.6,13.6,0,0,0,2.15.45q.55.1,2.9.65,2.3.5,2.4.55a6.392,6.392,0,0,0,1,.1q.7.05,1.65.15a33.084,33.084,0,0,0,7.95.15l2.85-.25q1.15-.1,1.7-.2l1.05-.2a14.285,14.285,0,0,1,1.6-.2,30.339,30.339,0,0,0,7.75-2,57.88,57.88,0,0,0,8.75-3.9,63.9,63.9,0,0,0,6.15-3.95,59.406,59.406,0,0,0,5.4-4.65,52.7,52.7,0,0,0,5-5.7,46.616,46.616,0,0,0,4.2-6.25q.6-.95,1.5-2.7a11.235,11.235,0,0,0,.8-1.8,14.887,14.887,0,0,0-3.35,0,19.776,19.776,0,0,1-2.85,0l-1-.05.1-.95a13.128,13.128,0,0,1,.2-1.65,6.591,6.591,0,0,0,.15-1.25,10.437,10.437,0,0,1,.2-1.45l.25-2.1q.1-1,.2-1.55l.35-2.15-.65-.95a29.661,29.661,0,0,1-1.9-3.4l-.55-1q-.5-.85-1.6-3a27.085,27.085,0,0,1-1.2-2.5,1.959,1.959,0,0,0-.25-.45,2.629,2.629,0,0,1-.4-.65l-1.3-2.55q-1.8-3.55-2.65-5.1l-1.75-3.2a10.085,10.085,0,0,1-.7-1.55q-.25-.6-.3-.7l-.3-.65q-.2-.5-.55-1.3a8.263,8.263,0,0,1-.4-.85,3.448,3.448,0,0,0-.35-.75,6.2,6.2,0,0,1-.45-.95q-.2-.45-.35-.5a3.888,3.888,0,0,0-1.1-.15,10.31,10.31,0,0,1-1.55-.2,3.816,3.816,0,0,1-1.05-.35,1.959,1.959,0,0,0-.45-.2,3,3,0,0,1-.85-.45,6.559,6.559,0,0,1-1-.8,8.888,8.888,0,0,1-1.25-1.75,4.248,4.248,0,0,1-.75-1.6.407.407,0,0,0-.1-.3q-.2-.1-.4-1.75a5.468,5.468,0,0,1,.3-2.65,7.627,7.627,0,0,1,.5-1.35,9.409,9.409,0,0,1,.45-.95,1.332,1.332,0,0,0,.3-.45,10.323,10.323,0,0,1,1-1.15,15.769,15.769,0,0,1,1.3-1.2,3.915,3.915,0,0,1,1.3-.55q.8-.25,2.15-.55a11.771,11.771,0,0,1,1.7-.25,8.045,8.045,0,0,1,1.25.15,5.432,5.432,0,0,1,1.1.25.768.768,0,0,0,.3.1,2.521,2.521,0,0,1,.8.45,3.162,3.162,0,0,1,.8.55,3.973,3.973,0,0,0,.55.75,11.6,11.6,0,0,1,1.35,1.85,12.855,12.855,0,0,1,1.05,1.95,5.922,5.922,0,0,1,.25,1.3,12.7,12.7,0,0,1,.1,1.45,10.99,10.99,0,0,1-.5,2.1,7.318,7.318,0,0,1-.75,1.85.535.535,0,0,0-.15.55q.05.25.8,2.3a24.345,24.345,0,0,0,1.2,2.95q1,2.1,1.25,2.75l2.4,5.55q.15.4.25.7a10.128,10.128,0,0,0,.55,1.2q.45,1,.45,1.05,0,.1.9,2.05a11.391,11.391,0,0,1,.75,1.85q.5,1.5.9,2.8a.182.182,0,0,0,.25.15q.2,0,.2-.25a11.469,11.469,0,0,0,.1-1.35q.1-1.7.2-2.35l.3-2.05q.2-1.35.35-2.75l.15-1.5,2.15.4a18.484,18.484,0,0,1,2.45.6,11.229,11.229,0,0,0,1.85.35,7.415,7.415,0,0,0,1.45.2,8.822,8.822,0,0,0-.15-1.6q-.25-1.45-.45-2.3a4.946,4.946,0,0,1-.2-.85,2.38,2.38,0,0,0-.15-.65l-1.5-5.25a32.612,32.612,0,0,0-2.15-5.35l-1.3-2.55q-1.65-3.3-2.15-4.15a19.759,19.759,0,0,0-1.5-2.05l-1.5-1.75Q904.174,241.243,903.124,240.043Z" transform="translate(0.277 0.5)"/>
    </g>
    <g id="Layer40_0_FILL" data-name="Layer40 0 FILL">
      <path class="cls-4" d="M1004.674,224.743q-.25-.85-.65-1.95a5.464,5.464,0,0,0-.55-1.3,6.825,6.825,0,0,0-1.25-.5l-2.05-.65-3.75-1q-1.15-.35-2.2-.7-1.45-.55-2.75-.9-1.85-.5-7.35-2.25-5.2-1.65-5.5-1.65-.2,0-.85.7a16.8,16.8,0,0,0-1.2,1.5q-.45.65-1.05,1.4a29.678,29.678,0,0,0-2.7,4l-.9,1.55q-.15.25-1.05,2.2l-.9,1.9a15.381,15.381,0,0,0-.9,2.05q-1.35,3.25-2,5.1-.3,1-.85,2.45a28.723,28.723,0,0,0-1.3,4.8l-.5,2.75q-.3,1.45-.45,2.6l-.35,3.2q-.15,1.2-.2,2.15-.05,1-.05,3.05,0,2.6.1,3.65a10.227,10.227,0,0,0,.35,1.95l.45,1.6a8.364,8.364,0,0,0,.7,1.7,9.968,9.968,0,0,0,1.05,1.7l1.1,1.55a14.076,14.076,0,0,0,1.55,1.8,15.659,15.659,0,0,0,1.95,1.75l2.25,1.8a16.083,16.083,0,0,0,2.25,1.65,5.862,5.862,0,0,1,1.05.6l.5.3a2.267,2.267,0,0,1,.45.25,7.777,7.777,0,0,0,1.55.85,16.505,16.505,0,0,0,1.85.75l1.35.4q1.25.4,2.35.65a2.61,2.61,0,0,1,1.05.3,7.4,7.4,0,0,0,2.95.55q1.05.05,1.55.05a11.029,11.029,0,0,0,1.65-.2q1.75-.25,2.1-.35a6.972,6.972,0,0,1,1.05-.25,2.579,2.579,0,0,0,.8-.2l.9-.35a18.209,18.209,0,0,0,4.7-2.55,21.139,21.139,0,0,0,4.05-3.8q1.55-1.9,1.7-2.15l.3-.45a17.026,17.026,0,0,0,1.45-2.8,25.408,25.408,0,0,0,1.35-3.5,28.8,28.8,0,0,0,.7-3.05q.35-1.85.55-3.6.1-.95.15-1.95v-2.95q-.05-2.85-.2-4.2-.2-1.4-.9-4.95-.15-.5-.5-1.6-.6-2-.65-2.35-.45-1.6-1-3.35a20.3,20.3,0,0,0-.75-2.2q-.4-1-.95-2.8-.35-1-.85-2.55Q1005.024,225.843,1004.674,224.743Z" transform="translate(0.277 0.5)"/>
    </g>
    <g id="Layer39_0_FILL" data-name="Layer39 0 FILL">
      <path class="cls-6" d="M1006.124,209.943a.557.557,0,0,0-.05-.25,1.238,1.238,0,0,0-.35-.15l-1.25-.45a15.7,15.7,0,0,0-1.65-.55,28.206,28.206,0,0,1-3.6-1.2l-1.9-.55q-1.45-.4-3.4-1.05-1.6-.55-2.6-.85a5.711,5.711,0,0,1-1.05-.35q-.1-.05-1.2-.4-1.9-.55-2.4-.65-.45-.1-1.15-.3-.9-.25-1.15-.3l-1.15-.35q-.8-.25-2-.6l-3-.8q-1.65-.45-3.1-1-.95-.35-2.1-.7-.75-.2-1.8-.55-1-.35-1.3-.45a4.932,4.932,0,0,0-.7-.25q-.45-.1-2.2-.65-1.7-.6-2.15-.8l-1.8-.6q-1.5-.5-1.6-.5-.05,0-.15.2-.05.3-.2,2.25-.15,2.5-.2,3.3a4.953,4.953,0,0,0-.05,1.55q.1.25.8.35a3.511,3.511,0,0,1,.9.25q.35.15,2.55.8l1.75.55q4.1,1.4,5.95,1.9l2.3.7a2.815,2.815,0,0,1,.95.3,7.352,7.352,0,0,0,.8.3q2.25.75,2.5.85.2.1,2.55.75a25.6,25.6,0,0,1,4.2,1.45.711.711,0,0,0,.4.1,3.919,3.919,0,0,1,.55.1q.45.15.85.3.5.2,2.95.95l1,.35a16.514,16.514,0,0,0,1.95.6q1.55.5,2.55.75l4.25,1.3a7.483,7.483,0,0,1,1.9.7.541.541,0,0,0,.45.1,1.132,1.132,0,0,0,.4-.4q.3-.55,1.5-3.2T1006.124,209.943Z" transform="translate(0.277 0.5)"/>
    </g>
    <g id="Layer38_0_FILL" data-name="Layer38 0 FILL">
      <path class="cls-3" d="M969.324,370.393q-.3-.05-1.4-.25l-12.15-2.1q-6.95-1.2-7.05-1.25l-1.55-.25a14.223,14.223,0,0,1-1.9-.3,5.054,5.054,0,0,0-.8-.1.448.448,0,0,0-.3.3l-.1.3q0,.15-.65,2.3l-.5,1.55q-.05.3-.7,2.15l-2.7,8.75q-.45,1.3-.3,1.45.1.1,5,.3,4.95.2,6.3.2.7-.05,4.85.2,3.8.2,7.15.25,2.2,0,4.45.05a6.014,6.014,0,0,0,1.65,0q.25-.1.25-.2a2.536,2.536,0,0,0,.05-.7q0-.65.1-1.85.1-.95.2-3.5l.35-7.2Z" transform="translate(0.277 0.5)"/>
    </g>
    <g id="Layer37_0_FILL" data-name="Layer37 0 FILL">
      <path class="cls-3" d="M960.774,345.743a1.188,1.188,0,0,0-.55-.2q-.25-.1-.8-.35-.95-.45-3.25-1.25-.65-.25-1.35-.55-.4-.2-1.35-.6l-1.1-.4a1.518,1.518,0,0,0-.55-.15q-.15,0-.3.25a18.44,18.44,0,0,0-.95,3q-.3,1-1,3.3-.75,2.45-1.15,3.55-1.9,5.6-1.65,5.85.05.05,1.8.55,1.7.5,2.8.8a6.124,6.124,0,0,1,1.25.4,8.108,8.108,0,0,0,1,.3,2.41,2.41,0,0,1,.75.2,3.178,3.178,0,0,0,.8.25q1.2.3,3.55,1,3.15.9,3.8,1.05a7.738,7.738,0,0,1,1.75.5,8.356,8.356,0,0,0,1.4.4,9.309,9.309,0,0,1,1.4.35q1.45.45,2.05.6.55.15.6,0a4.05,4.05,0,0,0,.2-1.25l.75-10.85a12.606,12.606,0,0,0,.1-1.95.537.537,0,0,0-.25-.5q-1.95-.8-3.3-1.45a7.7,7.7,0,0,0-1.15-.55Z" transform="translate(0.277 0.5)"/>
    </g>
    <g id="Layer36_0_FILL" data-name="Layer36 0 FILL">
      <path class="cls-3" d="M900.824,330.493a13.876,13.876,0,0,0-1.75.45q-1.25.4-2.3.7a6.117,6.117,0,0,0-1.25.4q-.7.3-7.55,2.45a13.515,13.515,0,0,0-1.95.65q-.05.15,3.95,9.05,5.3,11.9,5.65,12.8a6.136,6.136,0,0,0,1.05,2,44.843,44.843,0,0,0,5.75-3.05l1.65-.85q.9-.5,1.1-.65.35-.2,2.45-1.3a12.012,12.012,0,0,0,1.7-.95q.05,0-1.65-4.55-1.65-4.4-3.2-8.45-.65-1.6-1.2-3.1a13.174,13.174,0,0,1-.55-1.65q0-.2-.1-.25-.05-.1-.5-1.3a14.217,14.217,0,0,0-.75-1.95Q901.124,330.493,900.824,330.493Z" transform="translate(0.277 0.5)"/>
    </g>
    <g id="Layer35_0_FILL" data-name="Layer35 0 FILL">
      <path class="cls-3" d="M918.274,326.843q-.4-.2-1-.45-.6-.2-.6-.15l-1.55.4q-1.8.45-3.2.75-4.45,1.05-4.45,1.4,3.1,11.3,3.3,12.05.3.9,1,3.5.7,2.5.7,2.65a.579.579,0,0,0,.1.4,4.364,4.364,0,0,1,.35,1.1q.25.85.35,1.15t.25.3q.05,0,1.3-.75a9.283,9.283,0,0,1,1.3-.7,5.113,5.113,0,0,0,.7-.45q.85-.55,3-1.75a9.725,9.725,0,0,0,1.15-.65q.7-.45,3.95-2.1l8.65-4.55q1.15-.65,3.35-1.8,1.85-.9,1.8-1.05a1.523,1.523,0,0,0-.45-.35q-.45-.2-.8-.35-.65-.15-5.9-2.7-2.9-1.45-4.5-2.1a9.1,9.1,0,0,1-.95-.4l-2.85-1.2q-.4-.15-1.1-.5l-1.45-.6q-1.7-.8-1.75-.8Z" transform="translate(0.277 0.5)"/>
    </g>
    <g id="Layer34_0_FILL" data-name="Layer34 0 FILL">
      <path class="cls-3" d="M968.524,281.793a10.229,10.229,0,0,0-1.9-1.6,12.763,12.763,0,0,0-1.85-.9,27.474,27.474,0,0,0-2.7-.75q-.8-.2-4.7-1.2-1.25-.35-3.05-.7-1.5-.3-2.7-.6a4.65,4.65,0,0,1-1.35-.45.912.912,0,0,0-.55-.1,1.884,1.884,0,0,1-.75-.15q-.25-.05-1.5-.35-1.1-.2-2.2-.5t-2.4-.55a10.639,10.639,0,0,0-1.7-.25,8.427,8.427,0,0,1-1.5-.2q-1.35-.25-2.85-.5-3.75-.7-4.05-.75l-2.2-.45v-.25q0-.35.5-3.1.5-2.85.5-2.95,0-.15-.25-.3a7.782,7.782,0,0,0-1.05-.45l-2.15-.8q-2.3-.85-2.65-1a3.455,3.455,0,0,0-.75-.3,7.77,7.77,0,0,1-1-.4,3.9,3.9,0,0,0-.9-.35l-.7-.2q-.2-.1-.25.1a1.18,1.18,0,0,0,.1.6,15.084,15.084,0,0,1,.55,2.2,1.355,1.355,0,0,0,.15.65,2.771,2.771,0,0,1,.15.7l.3,1.55a8.045,8.045,0,0,1,.15,1.25q0,.3.15,1.45a5.161,5.161,0,0,1,.15,1.2q-.05,0-1.3-.15-1.3-.2-2-.35a11.487,11.487,0,0,0-1.45-.2q-1.55-.15-1.85-.2-1.05-.15-1.5-.25a35,35,0,0,0-3.95-.95q-1.8-.3-1.9-.05a9.575,9.575,0,0,0-.25,1.9q-.15,1.8-.25,2.25-.15.8-.25,1.45-.05.65-.15,1.85l-.45,5.3q-.15,2.3-.65,6.5l-.35,2.9q-.25,2.1-.55,4.6l-.25,2.2q-.05.55-.15.6a3.366,3.366,0,0,0-.1,1.15q-.05,1,.05,1.05.2.25,6.15,0,3.15-.1,4.9-.2,1.75-.15,2.95-.25.75-.1,3.05-.15,2.2-.05,2.3-.1t2.4-.15q2.1,0,4.4-.2,2.05-.15,3.3-.2.15,0,6.1-.15l8.75-.3q3.1-.1,5.45-.2,1.6-.1,4.4-.4a13.15,13.15,0,0,0,6.4-2.2q.55-.45,1.6-1.35a6.1,6.1,0,0,0,1-1.05,1.8,1.8,0,0,1,.3-.55,9.642,9.642,0,0,0,.8-1.5,9.265,9.265,0,0,0,.65-1.55,10.883,10.883,0,0,0,.05-3.3,15.447,15.447,0,0,0-.9-3.15A10.7,10.7,0,0,0,968.524,281.793Z" transform="translate(0.277 0.5)"/>
    </g>
    <g id="Layer33_0_FILL" data-name="Layer33 0 FILL">
      <path class="cls-3" d="M967.574,211.243q-1.25-.3-2.2-.6a6.315,6.315,0,0,0-1.85-.35,2.872,2.872,0,0,1-1-.15,25.715,25.715,0,0,0-3.35-.1,35.2,35.2,0,0,0-3.8.2,25.5,25.5,0,0,0-3.55.95,29.027,29.027,0,0,0-3.8,1.65,20.894,20.894,0,0,0-3.15,1.8q-.7.55-.7.65a6.444,6.444,0,0,1-.8.75,10.745,10.745,0,0,0-1.35,1.2l-1.7,1.8q-1.25,1.3-1.55,1.7a5.1,5.1,0,0,1-.95,1q-.6.6-.8.6a.637.637,0,0,0-.3.3,9.088,9.088,0,0,1-1.65,1.7,13.57,13.57,0,0,1-2,1.55,5.7,5.7,0,0,0-.8.45,12.03,12.03,0,0,1-1.55.65,5.419,5.419,0,0,0-1.25.45,6.153,6.153,0,0,1-1.75.35,5.63,5.63,0,0,1-1.9-.1,5.35,5.35,0,0,0-1.3-.15,4.549,4.549,0,0,1-1.2-.15l-1.05-.25a7.462,7.462,0,0,1-2.5-1.05l-1.2-.75a4.265,4.265,0,0,1-1.05-1q-.6-.8-1.25-1.6-.9-1.1-1.15-1.45a8.685,8.685,0,0,1-.5-1.15,26.192,26.192,0,0,1-.85-3.15,13.867,13.867,0,0,1-.2-2.95,10.918,10.918,0,0,1,.2-2.75,11.5,11.5,0,0,1,.65-1.9q.55-1.3.7-1.55a.855.855,0,0,0,.15-.4,4.027,4.027,0,0,1,.35-.8,10.259,10.259,0,0,1,.55-1,1.23,1.23,0,0,0,.25-.45,34.832,34.832,0,0,1,3.05-3.1,13.28,13.28,0,0,1,2.8-2,15.411,15.411,0,0,1,3.1-1.45q.7-.2.8-.4a15.085,15.085,0,0,0-1.6-2.6l-4.6-6.75q-.3-.4-2.15-3.1-1.95-2.95-2.05-3.05a.594.594,0,0,0-.35-.3.387.387,0,0,0-.35.1l-1.75.9a16.343,16.343,0,0,0-1.9,1.1,6.8,6.8,0,0,1-1.05.75,26.927,26.927,0,0,0-3.95,3.3q-.85.95-2.15,2.35a11.748,11.748,0,0,0-1.25,1.5,5.822,5.822,0,0,1-.5.75,8.982,8.982,0,0,0-.65,1,9.243,9.243,0,0,1-.7,1.15,14.774,14.774,0,0,0-1.45,2.65,31.2,31.2,0,0,0-1.2,3.2q-.1.35-.35,1.05a13.372,13.372,0,0,0-.35,1.45l-.4,1.65q-.1.5-.2,1.45-.1,1.1-.3,2.6a36.952,36.952,0,0,0-.2,4.05,25.385,25.385,0,0,0,.15,3.75,14.994,14.994,0,0,0,.25,1.55,5.894,5.894,0,0,1,.25,1l.2,1.3q.15.55.5,1.65a15.011,15.011,0,0,0,.6,1.7q.25.5.75,1.75a10.607,10.607,0,0,0,.5,1.2,10,10,0,0,1,.8,1.45,18.307,18.307,0,0,0,1.55,2.45,13.394,13.394,0,0,1,.85,1.15,16.276,16.276,0,0,0,1.6,1.75,10.45,10.45,0,0,1,1.7,1.9.879.879,0,0,0,.35.35,8.879,8.879,0,0,1,1.45,1.3,25.768,25.768,0,0,0,3.7,3.2q.65.45,1.6,1a2.629,2.629,0,0,1,.65.4,9.927,9.927,0,0,0,2.7,1.3l1.75.65a7.029,7.029,0,0,0,1.05.4l1.3.4q.75.2,2,.4l4.8.7a14.493,14.493,0,0,0,2.25.05q1.55-.05,2.6-.15,5.6-.8,6.2-1.25a.859.859,0,0,1,.45-.15,15.356,15.356,0,0,0,2.65-1.2q1.6-.8,2.65-1.4a28.328,28.328,0,0,0,2.3-1.7l.3-.25-.1.3a5.6,5.6,0,0,1-.35.6,16.186,16.186,0,0,0-1.25,2.2q-.9,1.8-2.2,3.95a9.484,9.484,0,0,0-.55.95,7.613,7.613,0,0,1-.5.85q-.45.8-.95,1.75a4.589,4.589,0,0,0-.4,1.2.488.488,0,0,0,.1.35.968.968,0,0,0,.65.15,4.371,4.371,0,0,0,.95-.2,1.942,1.942,0,0,1,.9-.15.819.819,0,0,0,.6-.1,3.141,3.141,0,0,1,1.5-.25,8.424,8.424,0,0,1,2.15.05,6.49,6.49,0,0,1,1.8.8,2.816,2.816,0,0,1,.7.45,4.878,4.878,0,0,1,.6.6,3.41,3.41,0,0,1,.95,1.7l.05.35,4.1,1.05q4.15,1.1,4.2,1.15.15.05,1.65.35a7.171,7.171,0,0,0,1.6.3q.1,0,.15-.55.05-.5.05-2.55a44.73,44.73,0,0,1,.25-4.6q.25-1.7.3-2.6a51.457,51.457,0,0,1,.85-5.2l.35-1.85a24.836,24.836,0,0,1,.85-3.35l2.15-5.55a1.087,1.087,0,0,1,.2-.4q.1-.05.1-.35a7.687,7.687,0,0,1,.55-1.6q.6-1.4,1.3-2.95l1.55-3.35q.1-.2.55-.9a6.141,6.141,0,0,0,.4-.75,5.422,5.422,0,0,1,.6-1q.7-1.05.8-1.25a20.6,20.6,0,0,1,1.35-1.85l.8-1.05q.25-.4.8-1.1a5.136,5.136,0,0,1,.7-.85.491.491,0,0,0,.15-.5.429.429,0,0,0-.25-.45,12.306,12.306,0,0,0-2.7-.9q-2.4-.65-3.4-.8-.5-.05-4.25-.95m-26.9,26,.85-.45.7,1.6a9.6,9.6,0,0,1,.6,1.45,8.5,8.5,0,0,0,.4,1.1q.2.5.25.65.05.2-.05.2-.2,0-8.5-1.7-.05-.1,1.15-.65,2.35-1.05,4.6-2.2Z" transform="translate(0.277 0.5)"/>
    </g>
    <g id="Layer32_0_FILL" data-name="Layer32 0 FILL">
      <path class="cls-7" d="M865.624,338.593a4.453,4.453,0,0,0-1.55-.2,4.387,4.387,0,0,0-1.5.1,1.76,1.76,0,0,0-.7.4,1.938,1.938,0,0,0-.55.6,2.1,2.1,0,0,0-.25.6,9.167,9.167,0,0,0-.1.95,4.7,4.7,0,0,0,0,1,4.428,4.428,0,0,0,.2.65,3.672,3.672,0,0,0,.7.95,1.467,1.467,0,0,0,.8.4,1.574,1.574,0,0,1,.6.15,1.941,1.941,0,0,0,.85.15,2.873,2.873,0,0,0,.95-.05,1.878,1.878,0,0,0,.9-.6,2.813,2.813,0,0,0,.8-.95,3.1,3.1,0,0,0,.25-1.5l.1-1.1-.5-.65A3.894,3.894,0,0,0,865.624,338.593Z" transform="translate(0.277 0.5)"/>
    </g>
    <g id="Layer31_0_FILL" data-name="Layer31 0 FILL">
      <path class="cls-7" d="M904.724,323.293a2.772,2.772,0,0,0-.9.2,2.492,2.492,0,0,0-1,.7,1.547,1.547,0,0,0-.5.9,2.807,2.807,0,0,0,.1,1.3,4.022,4.022,0,0,0,.9,1.25,2.144,2.144,0,0,0,.5.4,1.384,1.384,0,0,0,.55.15,4.064,4.064,0,0,0,1.1-.05,1.865,1.865,0,0,0,.9-.4,2.333,2.333,0,0,0,.6-.95,2.979,2.979,0,0,0,.3-1.25,2.233,2.233,0,0,0-.4-1.35,2.112,2.112,0,0,0-1.15-.75A4.814,4.814,0,0,0,904.724,323.293Z" transform="translate(0.277 0.5)"/>
    </g>
    <g id="Layer30_0_FILL" data-name="Layer30 0 FILL">
      <path class="cls-7" d="M822.074,321.943a2.276,2.276,0,0,0-.75-.85,2.4,2.4,0,0,0-1.25-.65,3.549,3.549,0,0,0-1.5.25,3.355,3.355,0,0,0-1.15.6,1.625,1.625,0,0,0-.45.85,2.807,2.807,0,0,0,.45,2.65,2.088,2.088,0,0,0,1.65.75q.5,0,.55.1.1.15.65.05a1.247,1.247,0,0,0,.55-.1,6.249,6.249,0,0,0,.5-.4,3.116,3.116,0,0,0,.85-1.6A2.321,2.321,0,0,0,822.074,321.943Z" transform="translate(0.277 0.5)"/>
    </g>
    <g id="Layer29_0_FILL" data-name="Layer29 0 FILL">
      <path class="cls-7" d="M800.774,274.293a4.3,4.3,0,0,0-.8.1,2.826,2.826,0,0,0-1.25.7,2.583,2.583,0,0,0-.8,1.15,5.747,5.747,0,0,0-.1,1.2,4.774,4.774,0,0,0,.15,1.05,2.642,2.642,0,0,0,1.85,1.45,3.022,3.022,0,0,0,1.65.05,2.388,2.388,0,0,0,1.3-.65,2.484,2.484,0,0,0,.6-1.4,1.978,1.978,0,0,0-.1-1.45,2.118,2.118,0,0,1-.2-.6,1.306,1.306,0,0,0-.55-.75,3.408,3.408,0,0,0-1-.65A5.144,5.144,0,0,0,800.774,274.293Z" transform="translate(0.277 0.5)"/>
    </g>
    <g id="Layer28_0_FILL" data-name="Layer28 0 FILL">
      <path class="cls-7" d="M823.924,229.293a3.386,3.386,0,0,0-.65-.75,2.24,2.24,0,0,0-.65-.5,4.371,4.371,0,0,0-1.1-.1,4.527,4.527,0,0,0-.8.05,1.577,1.577,0,0,0-.55.25,2.3,2.3,0,0,0-.75.55,4.29,4.29,0,0,0-.75,1.45,4.842,4.842,0,0,0-.05.9,3.4,3.4,0,0,0,.3,1.3,1.893,1.893,0,0,0,.7.85,1.577,1.577,0,0,0,.55.25,9.536,9.536,0,0,0,1,.1l1.15.05.7-.55a4,4,0,0,0,1-1.05,3.656,3.656,0,0,0,.2-1.4,4.944,4.944,0,0,0-.05-.85A1.576,1.576,0,0,0,823.924,229.293Z" transform="translate(0.277 0.5)"/>
    </g>
    <g id="Layer27_0_FILL" data-name="Layer27 0 FILL">
      <path class="cls-7" d="M862.774,212.243a.818.818,0,0,0-.45.1,4.118,4.118,0,0,0-.5.45,3.617,3.617,0,0,0-.65.9,3.275,3.275,0,0,0-.2,1,2.579,2.579,0,0,0,.25,1.4,4.081,4.081,0,0,0,1.3,1.05,2.124,2.124,0,0,0,.65.3h1.1a10.423,10.423,0,0,0,1.1-.1,1.177,1.177,0,0,0,.5-.25,1.761,1.761,0,0,0,.6-.75,3.315,3.315,0,0,0,.2-1.3,4.525,4.525,0,0,0-.1-1.25,3.71,3.71,0,0,0-.65-.85,2.2,2.2,0,0,0-.55-.5,1.188,1.188,0,0,0-.55-.2A10.405,10.405,0,0,0,862.774,212.243Z" transform="translate(0.277 0.5)"/>
    </g>
    <g id="Layer26_0_FILL" data-name="Layer26 0 FILL">
      <path class="cls-7" d="M892.024,259.593a5.948,5.948,0,0,0,.65,1.6q1.5,3.2,1.95,4.25a6.1,6.1,0,0,0,.5,1.05.288.288,0,0,1,.1.2,3.725,3.725,0,0,0,.55,1.1q.75,1.3,1.65,2.95.9,1.7,1.15,2.35l1.05,2.1q.95,1.75,1.1,1.95.15.25.6,1.15l.95,1.85q1.7,3.45,2.2,4.25a12.373,12.373,0,0,1,.85,1.6q.55,1.05.9,1.6.3.55.75,1.4a3.27,3.27,0,0,0,.6.95q.2.2.25-.15a13.129,13.129,0,0,0,.2-1.9q.2-1.6.3-2.25t.35-4.4l.1-1.4a4.441,4.441,0,0,0-.6-2.35,1.753,1.753,0,0,1-.2-.5,5.5,5.5,0,0,0-.25-.65,5.5,5.5,0,0,1-.25-.65.768.768,0,0,0-.1-.3,10.09,10.09,0,0,1-.75-1.6,5.587,5.587,0,0,0-.5-1.15l-1.45-3.35a14.086,14.086,0,0,0-.7-1.55q-.25-.6-.4-1.05a10.339,10.339,0,0,0-.45-1.1,9.751,9.751,0,0,1-.6-1.4q-.3-.85-.35-.95a14.9,14.9,0,0,1-1.1-2.4q-.85-2.05-1.35-3.55a3.333,3.333,0,0,0-.5-1.1q-.15-.1-.65.4a18.316,18.316,0,0,1-1.4,1.25,7.647,7.647,0,0,1-1.2.85,10.75,10.75,0,0,1-1.75.5,8.98,8.98,0,0,1-1.75.25Q892.074,259.443,892.024,259.593Z" transform="translate(0.277 0.5)"/>
    </g>
    <g id="Layer25_0_FILL" data-name="Layer25 0 FILL">
      <path class="cls-8" d="M925.724,317.243a2.241,2.241,0,0,0-.65-.75,1.687,1.687,0,0,0-.45-.3,2.291,2.291,0,0,0-.6-.05,3.364,3.364,0,0,0-1.2.25,2.333,2.333,0,0,0-.95.6,1.465,1.465,0,0,0-.4.95,1.961,1.961,0,0,0,.55,1.8,2.021,2.021,0,0,0,.8.55,1.523,1.523,0,0,0,.9.05,1.944,1.944,0,0,0,2.15-2.25A2.155,2.155,0,0,0,925.724,317.243Z" transform="translate(0.277 0.5)"/>
    </g>
    <g id="Layer24_0_FILL" data-name="Layer24 0 FILL">
      <path class="cls-6" d="M969.774,320.093q-1.05-.45-2.15-.85t-1.9-.7q-.55-.25-1.05-.45a18.513,18.513,0,0,1-1.9-.7q-1-.45-2.55-1-1.5-.55-2.1-.75a8.659,8.659,0,0,1-1.4-.5q-.4-.15-.9-.35l-3-1.15a20.669,20.669,0,0,0-2.75-1,.622.622,0,0,0-.35,0,1.273,1.273,0,0,0-.3.3,2.544,2.544,0,0,0-.55.75,2.057,2.057,0,0,0-.35.7,5.948,5.948,0,0,1-.3.7,12.67,12.67,0,0,0-.55,2q-.3,1.35-.4,1.6a8.718,8.718,0,0,0-.25,1.75,14,14,0,0,0,.05,2.15,22.414,22.414,0,0,0,.6,2.9,9.131,9.131,0,0,0,.85,2.25,1.357,1.357,0,0,1,.2.45q0,.1.3.4l1.3,1.55a19.411,19.411,0,0,0,2.85,2.7q.4.3,1.15.8a5.93,5.93,0,0,0,.75.45,2.174,2.174,0,0,1,.45.3,4.886,4.886,0,0,0,1.3.55,12.663,12.663,0,0,0,1.7.5,8.231,8.231,0,0,1,1.25.25,13.794,13.794,0,0,0,1.85.15,14.279,14.279,0,0,0,2.15-.05,8.586,8.586,0,0,0,2.7-.75l1.4-.6a10.8,10.8,0,0,0,3.2-2.05,31.159,31.159,0,0,0,3.3-4.35,11.331,11.331,0,0,0,.85-1.6,10.978,10.978,0,0,0,.75-1.6,2.169,2.169,0,0,1,.35-.8,1.972,1.972,0,0,0,.25-.7.764.764,0,0,0,0-.4.887.887,0,0,0-.4-.25,2.788,2.788,0,0,0-.6-.2,1.241,1.241,0,0,1-.5-.2,8.97,8.97,0,0,0-1.25-.6,7.074,7.074,0,0,0-1-.35q-.05,0-1.3-.5T969.774,320.093Z" transform="translate(0.277 0.5)"/>
    </g>
    <g id="Layer23_0_FILL" data-name="Layer23 0 FILL">
      <path class="cls-8" d="M932.724,308.243a3.592,3.592,0,0,0-.1-.95,2.026,2.026,0,0,0-.55-.7,1.981,1.981,0,0,0-.6-.45,2.132,2.132,0,0,0-.75-.1,2.1,2.1,0,0,0-.5.05,3.5,3.5,0,0,0-.5.25,1.894,1.894,0,0,0-.65.55,1.232,1.232,0,0,0-.2.7,2.98,2.98,0,0,0,.15,1.1,2.191,2.191,0,0,0,.55.75,3.083,3.083,0,0,0,.75.55,2.846,2.846,0,0,0,.95-.1,3.447,3.447,0,0,0,1.25-.65.787.787,0,0,0,.2-.3Z" transform="translate(0.277 0.5)"/>
    </g>
    <g id="Layer22_0_FILL" data-name="Layer22 0 FILL">
      <path class="cls-7" d="M963.424,258.443a3.87,3.87,0,0,0-1.2-.45,2.976,2.976,0,0,1-1.05-.3q-.05-.1-.35-.1a3.68,3.68,0,0,1-.95-.2,3.657,3.657,0,0,0-.95-.25q-.3-.1-.65-.2a13.019,13.019,0,0,0-1.8-.55,13.037,13.037,0,0,1-1.3-.3,6.191,6.191,0,0,0-1.1-.25,9.7,9.7,0,0,1-1.15-.3l-1.2-.3a5.138,5.138,0,0,1-1.5-.5,1.134,1.134,0,0,0-.65-.2,8.412,8.412,0,0,1-1.65-.45q-1.05-.3-2.85-.8a17.114,17.114,0,0,0-2.1-.5,1.518,1.518,0,0,1-.55-.15,4.6,4.6,0,0,0-1-.3l-1.55-.4q-.8-.2-2.1-.5-.3-.1-1.35-.4a9.928,9.928,0,0,0-2.25-.65q-.2,0-.3.55-.25,1.15-.3,1.5-.2.9-.35,1.6a8.668,8.668,0,0,1-.2,1,2.4,2.4,0,0,0-.1.75,21.339,21.339,0,0,1-.4,2.55l-.55,3q-.45,2.3-.9,4.95t-.6,3.9a5.115,5.115,0,0,1-.25,1.55q-.1.2,0,.3.05.05,2.35.45l3.35.6a12.373,12.373,0,0,0,1.6.3q2.45.35,8.85,1.8,6.45,1.45,14.45,3.4,1.55.4,5.1,1.15,1.95.4,2.05.45a3.538,3.538,0,0,0,.6.15l4.45.95a3.178,3.178,0,0,1,.8.25q.15.05,1.15.25,1.05.25,1.95.4.8.1,3.25.6,2.15.5,3.05.65l4.25.85q1.8.35,4.1.9,1.65.35,2.15.45,1.8.4,2.85.65a17.6,17.6,0,0,0,2.2.4.336.336,0,0,0,.3-.15q.05-.1.3-.75a3.525,3.525,0,0,1,.45-1,.339.339,0,0,0,.1-.25q0-.15,1.95-5.45,2-5.3,2.15-5.5a3.324,3.324,0,0,0,.2-.8q.05-.5-.05-.55-.15,0-.6.4-.35.35-1.95,1.6-1.7,1.25-2.1,1.5-.25.15-1.55.8t-1.95.95q-.45.2-.85.35-.35.05-1.2.2a4.865,4.865,0,0,0-1.2.25q-.1.05-1.2.3a11.225,11.225,0,0,1-1.55.2,12.825,12.825,0,0,1-2.15-.1,4.277,4.277,0,0,1-1.5-.3.488.488,0,0,0-.35-.1,2.468,2.468,0,0,1-.75-.15q-.2-.05-1.3-.35a15.2,15.2,0,0,1-1.55-.4,3.513,3.513,0,0,0-.8-.25.9.9,0,0,1-.45-.15,3.1,3.1,0,0,0-.6-.2,1.969,1.969,0,0,1-.8-.3,3.512,3.512,0,0,0-1-.5,13.526,13.526,0,0,1-2.55-1.4,5.422,5.422,0,0,0-1-.6.432.432,0,0,1-.3-.15,1.368,1.368,0,0,0-.5-.35,8.165,8.165,0,0,1-1.25-.9q-1-.75-1.95-1.6a34.2,34.2,0,0,1-3-2.6q-1.2-1.7-1.3-1.9-.25-.35-.6-.95-.3-.55-.4-.55t-.5-.7q-.4-.7-.65-1.25-.15-.45-.45-1.6a18.534,18.534,0,0,1-.5-2.1A1.614,1.614,0,0,0,963.424,258.443Z" transform="translate(0.277 0.5)"/>
    </g>
    <g id="Layer21_0_FILL" data-name="Layer21 0 FILL">
      <path class="cls-4" d="M900.324,249.593a5.585,5.585,0,0,0-.2-.9,6.981,6.981,0,0,0-.65-1.35,5.8,5.8,0,0,0-.8-1.25l-.95-1.2a7.214,7.214,0,0,0-1.1-1.15,2.886,2.886,0,0,0-1.2-.6l-.75-.2a10.77,10.77,0,0,0-1.6-.2,12.845,12.845,0,0,0-1.5.05q-.35.1-1.35.3a7.853,7.853,0,0,0-2.35.65,7.508,7.508,0,0,0-1.75,1.4,11.615,11.615,0,0,0-1.2,1.5,4.146,4.146,0,0,0-.7,1.2,2.936,2.936,0,0,1-.25.65,6.935,6.935,0,0,0-.5,2.85,6.653,6.653,0,0,0,.15,1.9,7.717,7.717,0,0,0,.55,1.7l.25.65a5.726,5.726,0,0,0,1.05,1.45,9.867,9.867,0,0,0,1.3,1.4l.55.3a6.284,6.284,0,0,0,1.25.6,6.616,6.616,0,0,0,1,.2,11.088,11.088,0,0,0,1.9.1,12.376,12.376,0,0,0,2.35-.05,6.331,6.331,0,0,1,1.55-.45,3.286,3.286,0,0,0,1.1-.35,5.772,5.772,0,0,0,1.15-.9,7.256,7.256,0,0,0,1.35-1.4,4.622,4.622,0,0,0,.75-1.4,18.961,18.961,0,0,0,.6-1.95,10.584,10.584,0,0,0,.05-1.95Q900.374,250.043,900.324,249.593Z" transform="translate(0.277 0.5)"/>
    </g>
    <g id="Layer20_0_FILL" data-name="Layer20 0 FILL">
      <path class="cls-6" d="M892.124,224.843a12.765,12.765,0,0,0-1.1-.65,7.987,7.987,0,0,1-.85-.5q-.45-.25-.85-.45l-1.7-.85q-1.15-.5-1.85-.8a17.4,17.4,0,0,0-1.85-.6l-2.35-.75a19.867,19.867,0,0,0-2.05-.55l-2.2-.5q-2.15-.55-4.15-.9a8.336,8.336,0,0,1-1.2-.25,30.241,30.241,0,0,0-5.2-.5,22.659,22.659,0,0,1-3.2-.2,3.621,3.621,0,0,0-1.2-.1,8.282,8.282,0,0,0-1.5.1,15.9,15.9,0,0,1-2.05.2q-1.65.1-2.75.25t-3.05.6l-3.55.75a5.584,5.584,0,0,0-1.1.3q-.65.2-2.15.55-1.1.3-2.05.65-.95.3-3.55,1.35a34.877,34.877,0,0,0-3.25,1.5q-1.9.95-3.1,1.65-.55.35-3.75,2.15a25.981,25.981,0,0,0-2.25,1.55,11.158,11.158,0,0,1-1.1.8,9.2,9.2,0,0,0-1.25.85q-.85.7-1.55,1.4-1.1,1.05-1.35,1.05t-1.65,1.45a51.853,51.853,0,0,0-3.65,3.95,47.587,47.587,0,0,0-3,3.95q-.95,1.35-1,1.4a17.817,17.817,0,0,0-.9,1.55,19.224,19.224,0,0,1-1.1,1.75,23.708,23.708,0,0,0-1.45,2.65q-.85,1.8-1.45,3.3a10.034,10.034,0,0,1-.55,1.3,10.262,10.262,0,0,1-.55,1,24.186,24.186,0,0,0-1.45,3.7q-1.6,4.65-1.7,4.75-.05.15-.5,2.9-.25,1.7-.4,2.3a11.284,11.284,0,0,0-.3,1.85q-.15,1.7-.15,6.75.05,4.95.2,6.2.2,1.15.7,4.45.3,1.9.4,2.75a9.887,9.887,0,0,0,.25,1.35l.3,1.2a12.721,12.721,0,0,0,.4,1.65l.45,1.45a1.917,1.917,0,0,0,.15.6l.65,1.9a21.374,21.374,0,0,0,1.15,3l1.55,3.1q.75,1.4.8,1.55.4.7,1.2,2.05.85,1.35,1.05,1.7l.5.8a5.249,5.249,0,0,0,.65.95q.55.75.95,1.25a18.256,18.256,0,0,1,1.5,1.95,19.872,19.872,0,0,0,1.75,2.15q1.3,1.5,2.25,2.45a11.826,11.826,0,0,1,1,1.05,9.578,9.578,0,0,0,1.3,1.65q.4.45,1.55,1.5a8.188,8.188,0,0,0,1.25,1,5.113,5.113,0,0,1,.7.45q.65.5,1.6,1.1a15.548,15.548,0,0,1,1.7,1.2q1.05.75,1.4.95l1.55,1a1.034,1.034,0,0,1,.45.3.4.4,0,0,0,.3.2,11.9,11.9,0,0,1,1.4.6q1.3.6,1.85.9a11.9,11.9,0,0,0,1.15.45,11.931,11.931,0,0,1,1.4.6,2.936,2.936,0,0,0,.65.25.806.806,0,0,1,.35.1q.4.15.7.25a18.479,18.479,0,0,1,2.2.95,19.42,19.42,0,0,0,2.85,1.1,29.236,29.236,0,0,0,3.7.95q1.6.4,1.75.45a16.336,16.336,0,0,0,4.2.85q3.5.5,6.35.65.45,0,3.8.2a27.932,27.932,0,0,0,4.65-.1,25.92,25.92,0,0,0,4.4-.65q.55-.15,1.6-.35a13.325,13.325,0,0,0,1.4-.3l1-.25q.35-.1.85-.25l1.45-.45q1.35-.4,3-.95a14.955,14.955,0,0,0,2.2-.9q.65-.3,1.5-.6.8-.3,2.95-1.35a13.55,13.55,0,0,0,2.4-1.3.409.409,0,0,1,.25-.15,4.96,4.96,0,0,0,.65-.3q.6-.3.95-.5a6.855,6.855,0,0,1,.7-.35q.45-.25,2-1.3a16.019,16.019,0,0,1,1.75-1.05,10.168,10.168,0,0,0,1-.75,9.259,9.259,0,0,1,.95-.75,3.066,3.066,0,0,0,.75-.6q.7-.6.85-.7t.8-.6l1.45-1.15a11.924,11.924,0,0,0,1.5-1.35,3.663,3.663,0,0,1,.9-.8.632.632,0,0,0,.35-.3,4.614,4.614,0,0,1,.9-1.15q1.2-1.25,3.2-3.6.65-.85,1.1-1.55a9.126,9.126,0,0,1,.85-1.15q.2-.2.2-.25a3.134,3.134,0,0,1,.45-.75,34.989,34.989,0,0,0,2.05-3.25,8.238,8.238,0,0,0,.55-.95l.9-1.55a14.955,14.955,0,0,0,.95-1.95,15.456,15.456,0,0,1,.85-1.9,1.1,1.1,0,0,0,.25-.5,1.573,1.573,0,0,1,.2-.55,2.942,2.942,0,0,0,.3-.75q.05-.3-.05-.4a.87.87,0,0,0-.55-.05l-3.55.25q-2.65.2-3.1.25a.765.765,0,0,0-.55.55,7.4,7.4,0,0,1-.65,1.45,10.385,10.385,0,0,0-.55,1.3,3.772,3.772,0,0,1-.4.8q-.4.75-.7,1.2a2.654,2.654,0,0,0-.35.5,15.293,15.293,0,0,1-1.4,2.1,26.514,26.514,0,0,1-1.65,2.25q-.5.5-.5.65a.958.958,0,0,1-.25.4,13.278,13.278,0,0,1-1.1,1.25,5.353,5.353,0,0,1-1.2,1.1q-.15,0-.45.4a24.93,24.93,0,0,1-2.2,2.35q-1.95,1.95-2.75,2.65a17.479,17.479,0,0,1-1.65,1.3l-2.2,1.5a11.279,11.279,0,0,0-1.35.9,4.45,4.45,0,0,1-1.1.7,5.324,5.324,0,0,0-1.15.55l-1.05.6a7.148,7.148,0,0,0-.8.4,18.906,18.906,0,0,1-1.65.95,5.6,5.6,0,0,1-1.15.5q-.1,0-.2.15a.69.69,0,0,1-.5.15q-.35,0-.4.15a4.229,4.229,0,0,1-.5.3l-.95.4q-.8.35-1.9.75a7.582,7.582,0,0,1-1.35.4.855.855,0,0,0-.4.15,7.352,7.352,0,0,1-.8.3q-.5.15-1.35.45a13.607,13.607,0,0,1-1.45.4q-.75.15-1.8.4-.8.2-1.65.35l-1.35.3a7.722,7.722,0,0,1-1.4.15q-.55,0-.6.1a4.484,4.484,0,0,1-1.45.15,8.947,8.947,0,0,0-1.7.15,11.234,11.234,0,0,1-2.8.2,27.969,27.969,0,0,1-3.7-.2l-2.15-.25a7.316,7.316,0,0,1-1.75-.3l-.85-.15-1.35-.3q-1.05-.3-3.8-.85-.5-.1-1.45-.35l-1.4-.4a9.141,9.141,0,0,1-1.4-.45,6.864,6.864,0,0,0-1.25-.35,1.272,1.272,0,0,1-.55-.3,1.754,1.754,0,0,0-.4-.25,4.02,4.02,0,0,1-1.05-.3,2.419,2.419,0,0,1-.85-.45.475.475,0,0,0-.4-.2,13.894,13.894,0,0,1-2.35-1q-2.1-1.05-2.9-1.55l-.6-.35q-.3-.2-.8-.5a1.8,1.8,0,0,0-.55-.3,4.4,4.4,0,0,1-.65-.45,5.26,5.26,0,0,0-.7-.4,11.207,11.207,0,0,1-1.05-.8l-1.1-.75a2.015,2.015,0,0,1-.6-.4q-.5-.45-.95-.85-.55-.55-1.55-1.4a21.25,21.25,0,0,1-1.7-1.55,9.016,9.016,0,0,1-1.25-1.35,19.507,19.507,0,0,0-1.3-1.5q-1.15-1.3-1.7-2-.55-.65-1-1.1a4.682,4.682,0,0,1-.7-.95,8.056,8.056,0,0,0-.9-1.2,11.85,11.85,0,0,1-1.65-2.4,9.015,9.015,0,0,0-.75-1.25,5.149,5.149,0,0,1-.45-.95q-.35-.8-.65-1.35a1.7,1.7,0,0,1-.3-.75.576.576,0,0,0-.2-.4,16.236,16.236,0,0,1-1-2.35,12.33,12.33,0,0,1-.75-2.45.409.409,0,0,0-.15-.25.409.409,0,0,1-.15-.25,2.492,2.492,0,0,0-.25-.7,21.277,21.277,0,0,1-.8-2.1,20.411,20.411,0,0,1-.6-2.1q-.4-1.8-.5-2.5-.1-.4-.45-1.75-.3-1.4-.45-2.15-.25-1.9-.4-5.45a44.39,44.39,0,0,1,0-5.25,19.54,19.54,0,0,1,.3-2.4q.2-1.35.3-2.5a20.16,20.16,0,0,1,.55-3.1,3.355,3.355,0,0,0,.1-.9,10.929,10.929,0,0,1,.35-1.85,22.809,22.809,0,0,1,.8-2.65q.15-.5.25-.95a1.549,1.549,0,0,1,.15-.45,3.4,3.4,0,0,0,.35-.85q.5-1.3,1.2-2.8a10.727,10.727,0,0,1,.95-1.75.767.767,0,0,0,.2-.35,6.858,6.858,0,0,1,.75-1.65,24.2,24.2,0,0,1,1.3-2.2,13.759,13.759,0,0,0,.8-1.15q.6-1.05,1.05-1.75.45-.65,1-1.45a5.868,5.868,0,0,1,.7-.8,3.919,3.919,0,0,0,.8-.9,14.348,14.348,0,0,0,.85-1.3,7.5,7.5,0,0,1,1-1.05q.95-1,1.4-1.45,1.3-1.4,2.6-2.6a6.509,6.509,0,0,1,1.55-1.2q.15,0,.25-.2.15-.15.8-.65,2.65-1.85,3.45-2.3l1.8-1.1q1.9-1.2,3.7-2.15l.7-.45q.35-.2.95-.5a5.549,5.549,0,0,0,.75-.35l3.7-1.85a12,12,0,0,1,1.6-.65,13.179,13.179,0,0,0,1.4-.45,24.261,24.261,0,0,1,5.8-1.7l1.05-.15a2.764,2.764,0,0,0,.75-.2,34.5,34.5,0,0,1,6.35-.45,37.132,37.132,0,0,1,6.7.35q1.25.25,2.7.45.65.05,2.75.45l2.5.45q.65.15.95.25l1.4.35a15.7,15.7,0,0,1,1.65.55,2.7,2.7,0,0,0,.8.2.407.407,0,0,1,.3.1,3.292,3.292,0,0,0,.95.3,12.418,12.418,0,0,1,1.6.6,5.242,5.242,0,0,1,1.2.55.768.768,0,0,0,.3.1,3.731,3.731,0,0,1,.95.45q.85.4,1.3.65l2.95,1.7a8.154,8.154,0,0,1,1.15.7q.45.35,2.1,1.35,1.6.95,2.25,1.25a.835.835,0,0,1,.35.25,5.605,5.605,0,0,0,.8.7,4.723,4.723,0,0,1,1,.9q.2.3.35.3.2,0,.6.45.6.55,1.7,1.55,1.3,1.2,2.05,2.05t2.25,2.8q.8,1,1.25,1.5a32.239,32.239,0,0,1,2.3,2.8,38.549,38.549,0,0,1,2.8,5.25,17.948,17.948,0,0,0,.9,1.85l1,2.05a22.752,22.752,0,0,1,1.4,3.6,1.188,1.188,0,0,0,.2.55,5.94,5.94,0,0,1,.15.65,12.226,12.226,0,0,0,.4,1.35,15.267,15.267,0,0,1,.9,3.4,3.766,3.766,0,0,0,.15.65,4.67,4.67,0,0,1,.15.8,3.075,3.075,0,0,0,.15.75,3.791,3.791,0,0,1,.2,1.2q.1,1.1.25,1.2a24.049,24.049,0,0,0,3.15.5,18.627,18.627,0,0,0,3.25.3q.15-.05.1-.25,0-.2-.3-1.85l-.35-2.35q-.1-.6-.55-2.5-.4-1.95-.65-2.75a40.362,40.362,0,0,0-1.25-3.85l-.65-1.9a5.419,5.419,0,0,0-.4-.95,2.646,2.646,0,0,1-.3-.65,23.809,23.809,0,0,0-1.3-2.85q-1.3-2.65-1.95-3.8l-.55-.95a4.749,4.749,0,0,0-.4-.7,3.886,3.886,0,0,1-.35-.6,3.886,3.886,0,0,0-.35-.6l-.9-1.45a10.954,10.954,0,0,0-1.1-1.45q-.15-.15-1.8-2a21.65,21.65,0,0,0-2.15-2.3q-1-.95-1.7-1.75t-2.45-2.45a18.962,18.962,0,0,0-2.35-1.95,15.342,15.342,0,0,1-2.5-1.9q-.7-.6-1.4-1.1l-2.05-1.35q-1.6-1.05-2.1-1.35a13.328,13.328,0,0,0-1.35-.75Z" transform="translate(0.277 0.5)"/>
    </g>
    <g id="Layer19_0_FILL" data-name="Layer19 0 FILL">
      <path class="cls-5" d="M1009.074,217.743a22.588,22.588,0,0,1-2.25-.65q-1.55-.45-2-.55a6.972,6.972,0,0,0-1.05-.25,2.223,2.223,0,0,1-1.1-.35,1.077,1.077,0,0,0-.65-.3,4.659,4.659,0,0,1-.8-.2q-.8-.25-3.75-1.15-2.35-.65-4.05-1.15l-1.05-.4q-.45-.15-1.25-.4a6.216,6.216,0,0,1-1.05-.35,9.816,9.816,0,0,0-1.4-.45q-1.35-.45-1.6-.55l-2.85-.9q-1.65-.55-2.1-.65a8.82,8.82,0,0,1-1.2-.35,2.757,2.757,0,0,1-.8-.3.858.858,0,0,0-.35-.05q-.25,0-.3-.1t-.65-.25a4.929,4.929,0,0,1-1.25-.4,2.69,2.69,0,0,0-.9-.3,1.574,1.574,0,0,1-.6-.15l-.8-.3a3.058,3.058,0,0,1-.65-.2q-.1-.05-1-.3-2.75-.75-6.35-2.05l-4.7-1.45a6.538,6.538,0,0,0-1.4-.35.731.731,0,0,1-.45-.15,7.776,7.776,0,0,0-1.95-.6,11.167,11.167,0,0,1-1.45-.4q-1-.3-2.5-.65-1.25-.35-1.9-.55a8.108,8.108,0,0,0-1-.3,10.062,10.062,0,0,1-1.25-.4,5.722,5.722,0,0,0-1.3-.4,9.655,9.655,0,0,1-1.5-.45q-1.3-.5-1.7-.65a2.377,2.377,0,0,0-.65-.1.791.791,0,0,0-.5.1,4.168,4.168,0,0,0-.3.85,6.992,6.992,0,0,1-.4.95,7.351,7.351,0,0,0-.55,2.2,5.685,5.685,0,0,0-.15,2.1,1.276,1.276,0,0,0,.65.3,1.92,1.92,0,0,1,.75.25q.15.05,1.2.35,1.25.3,2.45.7,3.1,1.05,4.9,1.55a7.721,7.721,0,0,1,1.3.4q.45.15,1.8.45,1,.25,2.95.8,2,.5,3.55,1,3.25,1,5.25,1.45,1,.2,8,2.2l11.25,3.15q4.6,1.3,4.7,1.35a16.968,16.968,0,0,0,1.8.6q1.45.45,1.55.45a14.127,14.127,0,0,1,1.6.45q1.35.4,2.1.6,1.25.3,3.15.95a15.175,15.175,0,0,1,2.05.7.579.579,0,0,0,.4.1,27.319,27.319,0,0,1,3.1,1.05q7.55,2.7,7.85,2.7.25,0,.45-.5.15-.45.85-3.15l.4-1.6-.2-.2a29.073,29.073,0,0,0-3-1.1,29.838,29.838,0,0,1-2.85-.95,2.259,2.259,0,0,0-.7-.2,7.743,7.743,0,0,1-.75-.2Q1010.024,218.043,1009.074,217.743Z" transform="translate(0.277 0.5)"/>
    </g>
    <g id="Layer18_0_FILL" data-name="Layer18 0 FILL">
      <path class="cls-5" d="M1009.474,189.593q-.65-.15-2.2-.65-1.6-.5-2.4-.8a42.651,42.651,0,0,0-4.85-1.55,5.676,5.676,0,0,1-1.1-.4,4.027,4.027,0,0,0-.8-.35q-.15,0-3.8-1.2a11.2,11.2,0,0,1-1.2-.45,3.766,3.766,0,0,0-.65-.15,7,7,0,0,1-1.4-.35l-3.7-1.15a2.055,2.055,0,0,1-.7-.25,3.309,3.309,0,0,0-.45-.15q-.45-.1-1.8-.5a5.755,5.755,0,0,1-1.4-.5.579.579,0,0,0-.4-.1,15.8,15.8,0,0,1-2.95-.8,11.167,11.167,0,0,0-1.45-.4q-.5-.15-1.5-.5-5.65-1.9-7-2.3a30.987,30.987,0,0,1-4.1-1.35,3.132,3.132,0,0,0-.95-.2.949.949,0,0,0-.45,0q-.1,0-.2.15a7.383,7.383,0,0,0-.4,1.65q-.25,1.6-.55,5-.2,1.65-.35,2.65-.2,1.25-.25,1.9a8.709,8.709,0,0,1-.15,1.05q-.05.2-.65,5.25-.25,2.65,0,2.9a8.974,8.974,0,0,0,1.3.45q1.2.4,1.3.45l2.9,1.05q1.3.4,2.25.75.85.3,1.55.5.8.25,3.1,1,2.3.7,2.5.8.25.1,2.15.6l6.85,1.95a5.387,5.387,0,0,0,.95.2,17.074,17.074,0,0,1,1.7.45,13.431,13.431,0,0,1,1.75.6,6.5,6.5,0,0,0,.95.3l1.1.35q1.1.4,4.05,1.25,2,.55,5.1,1.6l1.25.4q.55.15,1.95.65a10.136,10.136,0,0,0,1.2.35.764.764,0,0,0,.4,0,4.927,4.927,0,0,0,.9-1.5l.9-1.75q.2-.35.95-2a14.953,14.953,0,0,1,.95-1.95,2.5,2.5,0,0,0,.2-.45,1.882,1.882,0,0,1,.2-.4l1.05-2.05a37.332,37.332,0,0,1,2.15-3.9,1.9,1.9,0,0,0,.2-.5,5.49,5.49,0,0,1,.3-.7q.3-.35.3-.45a4.085,4.085,0,0,1,.3-.6,2.54,2.54,0,0,0,.45-.8,1.238,1.238,0,0,1,.25-.45,1.536,1.536,0,0,0,.4-.7q0-.25-.3-.3l-1.6-.5Q1011.924,190.243,1009.474,189.593Z" transform="translate(0.277 0.5)"/>
    </g>
    <g id="Layer17_0_FILL" data-name="Layer17 0 FILL">
      <path class="cls-3" d="M999.424,332.193l-.1.5a.515.515,0,0,1-.1.2l-.35,1.3-.1.2-.05.25-.4.8a1.937,1.937,0,0,1-.1.25.516.516,0,0,1-.1.2l-.7,1.15a.783.783,0,0,0-.15.2l-.7.9-.35.3-.15.2-.15.1a1.491,1.491,0,0,1-.15.2.322.322,0,0,0-.2.15l-1.85,1.3a.544.544,0,0,0-.2.1l-.4.2a.544.544,0,0,0-.2.1l-.2.1-1.3.5a.544.544,0,0,0-.2.1.557.557,0,0,0-.25.05l-2.2.45h-.25a.819.819,0,0,1-.2.05h-.45l-.25.05h-.2l-.45.05a.213.213,0,0,0-.2,0,.289.289,0,0,0-.2.05l-.15.15-.1.2a.444.444,0,0,0-.05.2l.05.2.1.15a.544.544,0,0,0,.1.2l.2.1.2.05h.15a.444.444,0,0,0,.2-.05l.7-.05.2.05.45-.05.25-.1h.2l.45-.05.2-.1,1.35-.25a.486.486,0,0,0,.25-.1l.65-.2a.444.444,0,0,0,.2-.05l2.1-.95.8-.5a.544.544,0,0,1,.2-.1l1.1-.8,1.45-1.45,1.2-1.7.55-1a.822.822,0,0,1,.05-.25l.3-.6.05-.25.1-.2.05-.2.1-.2.05-.25a.515.515,0,0,0,.1-.2l.1-.45a.515.515,0,0,1,.1-.2l.15-.7v-.2l-.05-.2-.15-.2-.15-.1-.2-.1h-.2l-.2.05-.15.15-.15.15Z" transform="translate(0.277 0.5)"/>
    </g>
    <g id="Layer16_0_FILL" data-name="Layer16 0 FILL">
      <path class="cls-6" d="M999.374,328.043l-.1.2-.6.95a.785.785,0,0,0-.15.2l-.5.8-.15.15-.05.2-.5.8-.1.2a.783.783,0,0,0-.15.2l-.2.4a1.491,1.491,0,0,0-.15.2l-.3.6a.288.288,0,0,1-.1.2l-.4.85-.25.85v.7a.516.516,0,0,0,.1.2.824.824,0,0,0,.05.25l.05.2.55.75.65.65.45.2.15.15.4.2a.822.822,0,0,0,.25.05l.2.05a.557.557,0,0,0,.25.05l.2.05a.824.824,0,0,1,.25.05.29.29,0,0,0,.2.05h.2l.25.05h.7a.289.289,0,0,0,.2-.05h.25a.515.515,0,0,0,.2-.1l.65-.2a.544.544,0,0,1,.2-.1,1.487,1.487,0,0,1,.2-.15l.35-.25.15-.2.1-.2.1-.15a1.491,1.491,0,0,1,.15-.2l.3-1.1-.05-1.15a.822.822,0,0,1-.05-.25l-.1-.9-.3-1.35v-.2l-.3-1.15a.29.29,0,0,0-.05-.2.515.515,0,0,0-.1-.2v-.25l-.25-.85a.879.879,0,0,0-.1-.25l-.35-1.3-.1-.2a.556.556,0,0,0-.05-.25.818.818,0,0,1-.05-.2l-.35-1.1a.515.515,0,0,1-.1-.2v-.15a.044.044,0,0,0-.037-.05h-.013q-.1-.05-.1,0a.2.2,0,0,1-.05.15.544.544,0,0,1-.1.2l-.15.15-.75,1.2-.3.35-.1.2Z" transform="translate(0.277 0.5)"/>
    </g>
    <g id="Layer15_0_FILL" data-name="Layer15 0 FILL">
      <path class="cls-3" d="M908.724,253.043a2.1,2.1,0,0,0-.15,1,1.259,1.259,0,0,0,.4.75.9.9,0,0,0,1.1.2,1.108,1.108,0,0,0,.5-1.1,1.334,1.334,0,0,0-.3-.9,1.218,1.218,0,0,0-.9-.35.818.818,0,0,0-.45.1A.57.57,0,0,0,908.724,253.043Z" transform="translate(0.277 0.5)"/>
    </g>
    <g id="Layer14_0_FILL" data-name="Layer14 0 FILL">
      <path class="cls-3" d="M816.874,297.693a2.366,2.366,0,0,0-.15,1.05,1.259,1.259,0,0,0,.4.75,1.008,1.008,0,0,0,1.1.2,1.175,1.175,0,0,0,.5-1.1,1.334,1.334,0,0,0-.3-.9,1.218,1.218,0,0,0-.9-.35,1.518,1.518,0,0,0-.45.05A1.162,1.162,0,0,0,816.874,297.693Z" transform="translate(0.277 0.5)"/>
    </g>
    <g id="Layer13_0_FILL" data-name="Layer13 0 FILL">
      <path class="cls-3" d="M827.474,313.793a2.366,2.366,0,0,0-.15,1.05,1.067,1.067,0,0,0,.35.75,1.1,1.1,0,0,0,1.15.2,1.175,1.175,0,0,0,.5-1.1,1.218,1.218,0,0,0-.35-.9,1.157,1.157,0,0,0-.85-.35,1.518,1.518,0,0,0-.45.05A1.163,1.163,0,0,0,827.474,313.793Z" transform="translate(0.277 0.5)"/>
    </g>
    <g id="Layer12_0_FILL" data-name="Layer12 0 FILL">
      <path class="cls-3" d="M828.774,239.143a2.366,2.366,0,0,0-.15,1.05,1.259,1.259,0,0,0,.4.75,1.008,1.008,0,0,0,1.1.2,1.175,1.175,0,0,0,.5-1.1,1.334,1.334,0,0,0-.3-.9,1.218,1.218,0,0,0-.9-.35,1.518,1.518,0,0,0-.45.05A1.162,1.162,0,0,0,828.774,239.143Z" transform="translate(0.277 0.5)"/>
    </g>
    <g id="Layer11_0_FILL" data-name="Layer11 0 FILL">
      <path class="cls-3" d="M882.224,229.493a3.006,3.006,0,0,0-.5-.1.486.486,0,0,0-.25.1,1.557,1.557,0,0,0-.4.55.818.818,0,0,0,.15,1.05,1.354,1.354,0,0,0,1.25.25.765.765,0,0,0,.4-.15.519.519,0,0,0,.2-.35,1.1,1.1,0,0,0-.15-.85A1.072,1.072,0,0,0,882.224,229.493Z" transform="translate(0.277 0.5)"/>
    </g>
    <g id="Layer10_0_FILL" data-name="Layer10 0 FILL">
      <path class="cls-3" d="M845.474,229.743a.486.486,0,0,0-.25.1,1.39,1.39,0,0,0-.35.55.787.787,0,0,0,.1,1.05,1.4,1.4,0,0,0,1.25.25.57.57,0,0,0,.4-.2q.15-.05.2-.3a1.248,1.248,0,0,0-.15-.9,1.061,1.061,0,0,0-.65-.5Q845.574,229.743,845.474,229.743Z" transform="translate(0.277 0.5)"/>
    </g>
    <g id="Layer9_0_FILL" data-name="Layer9 0 FILL">
      <path class="cls-3" d="M864.724,328.443a1.072,1.072,0,0,0-.7-.5q-.4-.05-.5-.05a.486.486,0,0,0-.25.1,1.557,1.557,0,0,0-.4.55.832.832,0,0,0,.15,1.05,1.27,1.27,0,0,0,1.25.2.765.765,0,0,0,.4-.15.485.485,0,0,0,.2-.3A1.248,1.248,0,0,0,864.724,328.443Z" transform="translate(0.277 0.5)"/>
    </g>
    <g id="Layer8_0_FILL" data-name="Layer8 0 FILL">
      <path class="cls-3" d="M896.474,237.143a1.237,1.237,0,0,0-.65.1,2.625,2.625,0,0,0-.45.3,1.567,1.567,0,0,0-.3.4,1.206,1.206,0,0,0-.15.4,1.831,1.831,0,0,0,.3.35,1.463,1.463,0,0,0,.9.3,1.15,1.15,0,0,0,.85-.3.972.972,0,0,0,.2-.5,1.266,1.266,0,0,0-.2-.6A1.223,1.223,0,0,0,896.474,237.143Z" transform="translate(0.277 0.5)"/>
    </g>
    <g id="Layer7_0_FILL" data-name="Layer7 0 FILL">
      <path class="cls-3" d="M817.674,257.143a.878.878,0,0,0-.5-.45.831.831,0,0,0-.65.1,1.469,1.469,0,0,0-.7.65q-.2.35-.15.45,0,.1.3.3a1.334,1.334,0,0,0,.9.3.984.984,0,0,0,.8-.3.72.72,0,0,0,.25-.5A1.081,1.081,0,0,0,817.674,257.143Z" transform="translate(0.277 0.5)"/>
    </g>
    <g id="Layer6_0_FILL" data-name="Layer6 0 FILL">
      <path class="cls-3" d="M906.874,304.593q-.2.35-.15.45,0,.1.3.35a1.334,1.334,0,0,0,.9.3.984.984,0,0,0,.8-.3.869.869,0,0,0,.25-.5,1.1,1.1,0,0,0-.25-.6,1.411,1.411,0,0,0-.45-.45,1.458,1.458,0,0,0-.7.1A1.487,1.487,0,0,0,906.874,304.593Z" transform="translate(0.277 0.5)"/>
    </g>
    <g id="Layer5_0_FILL" data-name="Layer5 0 FILL">
      <path class="cls-3" d="M895.924,316.643a1.567,1.567,0,0,0-.3.4q-.2.3-.15.4,0,.1.3.35a1.334,1.334,0,0,0,.9.3.984.984,0,0,0,.8-.3.72.72,0,0,0,.25-.5,1.33,1.33,0,0,0-.25-.6,1.222,1.222,0,0,0-.5-.45,1.153,1.153,0,0,0-.65.15A.885.885,0,0,0,895.924,316.643Z" transform="translate(0.277 0.5)"/>
    </g>
    <g id="Layer4_0_FILL" data-name="Layer4 0 FILL">
      <path class="cls-3" d="M813.624,276.343a.887.887,0,0,0-.5-.4.831.831,0,0,0-.65.1,1.75,1.75,0,0,0-.75.65,1.152,1.152,0,0,0-.15.45,1.2,1.2,0,0,0,.3.3,1.538,1.538,0,0,0,.95.3,1.081,1.081,0,0,0,.8-.3.8.8,0,0,0,.2-.5A1.536,1.536,0,0,0,813.624,276.343Z" transform="translate(0.277 0.5)"/>
    </g>
    <g id="Layer3_0_FILL" data-name="Layer3 0 FILL">
      <path class="cls-3" d="M882.024,324.543q-.6.7-.05,1.2a1.265,1.265,0,0,0,1.35.35q.7-.25.4-1a1.3,1.3,0,0,0-.2-.35.456.456,0,0,0-.25-.25,1,1,0,0,0-.7-.15A.649.649,0,0,0,882.024,324.543Z" transform="translate(0.277 0.5)"/>
    </g>
    <g id="Layer2_0_FILL" data-name="Layer2 0 FILL">
      <path class="cls-3" d="M845.424,323.843l-.25-.25a1.547,1.547,0,0,0-.7-.15.649.649,0,0,0-.55.2q-.6.7-.05,1.25a1.184,1.184,0,0,0,1.35.3q.65-.25.4-1A1.3,1.3,0,0,0,845.424,323.843Z" transform="translate(0.277 0.5)"/>
    </g>
    <g id="Layer1_0_FILL" data-name="Layer1 0 FILL">
      <path class="cls-3" d="M863.424,225.743a1.142,1.142,0,0,0-.25.65.765.765,0,0,0,.25.55,1.174,1.174,0,0,0,1.3.35.7.7,0,0,0,.45-1,.742.742,0,0,0-.2-.35.858.858,0,0,0-.25-.25,1.179,1.179,0,0,0-.75-.15A.649.649,0,0,0,863.424,225.743Z" transform="translate(0.277 0.5)"/>
    </g>
  </g>
  <g id="Layer_2" data-name="Layer 2">
    <rect class="cls-9" x="0" y="0" width="1024" height="768"/>
  </g>
  <animateMotion xlink:href="#circle" dur="10s" begin="0s" fill="freeze" repeatCount="1">
    <mpath xlink:href="#motionPath" />
  </animateMotion>
</svg>
